<svg width="32" height="31" fill="none" xmlns="http://www.w3.org/2000/svg"><path d="M18.947.21c.79 0 1.432.678 1.432 1.514s-.642 1.514-1.432 1.514H5.594c-1.518 0-2.732 1.29-2.732 2.86v3.224h15.566c.79 0 1.431.678 1.431 1.514s-.641 1.515-1.431 1.515H2.862v11.972c0 1.57 1.214 2.86 2.732 2.86h20.813c1.517 0 2.73-1.29 2.73-2.86V13.535c0-.836.642-1.514 1.432-1.514.79 0 1.43.678 1.431 1.514v10.788c0 3.261-2.513 5.886-5.593 5.887H5.594C2.514 30.21 0 27.584 0 24.323V6.098C0 2.837 2.514.21 5.594.21h13.353zM10.8 20.985c.671 0 1.233.49 1.388 1.15.154-.66.716-1.15 1.387-1.15h6.938c.79 0 1.43.68 1.43 1.515 0 .836-.64 1.514-1.43 1.514h-6.938c-.671 0-1.233-.49-1.387-1.15-.155.66-.716 1.15-1.388 1.15H7.33c-.79 0-1.43-.678-1.43-1.514s.64-1.514 1.43-1.515h3.47zm18.77-19.22a1.377 1.377 0 012.025.029c.55.599.538 1.558-.028 2.14l-6.459 6.652a1.39 1.39 0 01-1.04.429 1.398 1.398 0 01-1.013-.492l-2.536-2.93a1.577 1.577 0 01.088-2.138 1.378 1.378 0 012.023.095l1.538 1.777 5.402-5.561z" fill="url(#paint0_linear_1_6599)"/><path d="M18.947.21c.79 0 1.432.678 1.432 1.514s-.642 1.514-1.432 1.514H5.594c-1.518 0-2.732 1.29-2.732 2.86v3.224h15.566c.79 0 1.431.678 1.431 1.514s-.641 1.515-1.431 1.515H2.862v11.972c0 1.57 1.214 2.86 2.732 2.86h20.813c1.517 0 2.73-1.29 2.73-2.86V13.535c0-.836.642-1.514 1.432-1.514.79 0 1.43.678 1.431 1.514v10.788c0 3.261-2.513 5.886-5.593 5.887H5.594C2.514 30.21 0 27.584 0 24.323V6.098C0 2.837 2.514.21 5.594.21h13.353zM10.8 20.985c.671 0 1.233.49 1.388 1.15.154-.66.716-1.15 1.387-1.15h6.938c.79 0 1.43.68 1.43 1.515 0 .836-.64 1.514-1.43 1.514h-6.938c-.671 0-1.233-.49-1.387-1.15-.155.66-.716 1.15-1.388 1.15H7.33c-.79 0-1.43-.678-1.43-1.514s.64-1.514 1.43-1.515h3.47zm18.77-19.22a1.377 1.377 0 012.025.029c.55.599.538 1.558-.028 2.14l-6.459 6.652a1.39 1.39 0 01-1.04.429 1.398 1.398 0 01-1.013-.492l-2.536-2.93a1.577 1.577 0 01.088-2.138 1.378 1.378 0 012.023.095l1.538 1.777 5.402-5.561z" fill="url(#paint1_radial_1_6599)"/><path d="M18.947.21c.79 0 1.432.678 1.432 1.514s-.642 1.514-1.432 1.514H5.594c-1.518 0-2.732 1.29-2.732 2.86v3.224h15.566c.79 0 1.431.678 1.431 1.514s-.641 1.515-1.431 1.515H2.862v11.972c0 1.57 1.214 2.86 2.732 2.86h20.813c1.517 0 2.73-1.29 2.73-2.86V13.535c0-.836.642-1.514 1.432-1.514.79 0 1.43.678 1.431 1.514v10.788c0 3.261-2.513 5.886-5.593 5.887H5.594C2.514 30.21 0 27.584 0 24.323V6.098C0 2.837 2.514.21 5.594.21h13.353zM10.8 20.985c.671 0 1.233.49 1.388 1.15.154-.66.716-1.15 1.387-1.15h6.938c.79 0 1.43.68 1.43 1.515 0 .836-.64 1.514-1.43 1.514h-6.938c-.671 0-1.233-.49-1.387-1.15-.155.66-.716 1.15-1.388 1.15H7.33c-.79 0-1.43-.678-1.43-1.514s.64-1.514 1.43-1.515h3.47zm18.77-19.22a1.377 1.377 0 012.025.029c.55.599.538 1.558-.028 2.14l-6.459 6.652a1.39 1.39 0 01-1.04.429 1.398 1.398 0 01-1.013-.492l-2.536-2.93a1.577 1.577 0 01.088-2.138 1.378 1.378 0 012.023.095l1.538 1.777 5.402-5.561z" fill="url(#paint2_radial_1_6599)" fill-opacity=".5"/><defs><radialGradient id="paint1_radial_1_6599" cx="0" cy="0" r="1" gradientUnits="userSpaceOnUse" gradientTransform="matrix(13.30515 -1.28755 1.19707 12.37021 .505 26.283)"><stop stop-color="#96AAFF"/><stop offset="1" stop-color="#96AAFF" stop-opacity="0"/></radialGradient><radialGradient id="paint2_radial_1_6599" cx="0" cy="0" r="1" gradientUnits="userSpaceOnUse" gradientTransform="matrix(-1.1579 18.02575 -1.8692 -.12007 30.99 2.656)"><stop stop-color="#FFFCBE"/><stop offset="1" stop-color="#FFFCBE" stop-opacity="0"/></radialGradient><linearGradient id="paint0_linear_1_6599" x1="6.362" y1="4.46" x2="29.525" y2="25.936" gradientUnits="userSpaceOnUse"><stop stop-color="#BEFFD2"/><stop offset=".462" stop-color="#D1FFF5"/><stop offset="1" stop-color="#64FFFF"/></linearGradient></defs></svg>