<svg width="34" height="34" fill="none" xmlns="http://www.w3.org/2000/svg"><rect width="34" height="34" rx="17" fill="#fff"/><path d="M8 10v-.75a.75.75 0 00-.75.75H8zm18 0h.75a.75.75 0 00-.75-.75V10zm-18 .75h18v-1.5H8v1.5zM25.25 10v12h1.5V10h-1.5zM24 23.25H10v1.5h14v-1.5zM8.75 22V10h-1.5v12h1.5zM10 23.25c-.69 0-1.25-.56-1.25-1.25h-1.5A2.75 2.75 0 0010 24.75v-1.5zM25.25 22c0 .69-.56 1.25-1.25 1.25v1.5A2.75 2.75 0 0026.75 22h-1.5z" fill="#000"/><path d="M8 10l9 9 9-9" stroke="#000" stroke-width="1.5" stroke-linecap="round" stroke-linejoin="round"/></svg>