<svg width="418" height="417" fill="none" xmlns="http://www.w3.org/2000/svg"><path d="M208.812 123.227l-.242.584.618.13 40.285 8.518-40.285 8.519-.635.133.265.594 9.731 21.727-26.287-22.341-.132-.112-.174-.012-33.302-2.168-.302-.02-.168.252-16.308 24.412 1.884-33.845.012-.232-.162-.165-24.82-25.281 33.681 12.054.702.252v-40.17l15.672 26.864.382.653.478-.586 18.978-23.245v27.427l.849-.67 38.961-30.726-19.681 47.454z" fill="#91A8ED" stroke="#000" stroke-width="1.05"/><path d="M168.529 131.331c6.635 0 12.013-5.379 12.013-12.014 0-6.634-5.378-12.013-12.013-12.013-6.634 0-12.013 5.379-12.013 12.013 0 6.635 5.379 12.014 12.013 12.014z" fill="#000" stroke="#000" stroke-width="1.05"/><path d="M300.878 308.881c6.859 0 12.42-5.561 12.42-12.42v-164.52c0-6.859-5.561-12.42-12.42-12.42H53.284c-6.86 0-12.42 5.561-12.42 12.42v164.52c0 6.859 5.56 12.42 12.42 12.42h247.594z" fill="#000" stroke="#fff" stroke-width="1.05"/><path d="M58.171 120.046H306.58c6.569.001 11.894 5.327 11.894 11.896v164.519c0 6.569-5.325 11.895-11.894 11.895H58.171c-6.57 0-11.895-5.325-11.895-11.895V131.942c0-6.569 5.326-11.896 11.895-11.896z" fill="url(#paint0_linear_34_1497)" stroke="#000" stroke-width="1.05"/><path d="M199.071 131.331a3.462 3.462 0 100-6.924 3.462 3.462 0 000 6.924z" fill="#000" stroke="#000" stroke-width="1.05"/><path d="M63.873 128.191h85.989a3.584 3.584 0 013.584 3.584 5.854 5.854 0 005.855 5.854h46.148a5.854 5.854 0 005.855-5.854 3.584 3.584 0 013.584-3.584h85.99a8.638 8.638 0 018.637 8.638V261.44a8.638 8.638 0 01-8.637 8.637H63.873a8.638 8.638 0 01-8.638-8.637V136.829a8.638 8.638 0 018.638-8.638z" fill="#000" stroke="#000" stroke-width="1.05"/><path fill-rule="evenodd" clip-rule="evenodd" d="M58.18 128.919c.134-.005.269-.008.404-.008h86.076c2.6 0 4.707 2.107 4.707 4.706 0 2.6 2.107 4.708 4.707 4.708h46.212a4.697 4.697 0 003.632-1.712h-44.709a4.706 4.706 0 01-4.707-4.707c0-2.6-2.108-4.707-4.708-4.707H63.72a9.726 9.726 0 00-5.54 1.72zm153.024-.008a4.7 4.7 0 013.631-1.712h86.076c5.398 0 9.774 4.376 9.774 9.774V261.2c0 5.262-4.16 9.553-9.371 9.765a9.76 9.76 0 004.236-8.054V138.684c0-5.397-4.376-9.773-9.774-9.773h-84.572z" fill="#000"/><mask id="a" style="mask-type:luminance" maskUnits="userSpaceOnUse" x="58" y="127" width="253" height="144"><path fill-rule="evenodd" clip-rule="evenodd" d="M58.18 128.919c.134-.005.269-.008.404-.008h86.076c2.6 0 4.707 2.107 4.707 4.706 0 2.6 2.107 4.708 4.707 4.708h46.212a4.697 4.697 0 003.632-1.712h-44.709a4.706 4.706 0 01-4.707-4.707c0-2.6-2.108-4.707-4.708-4.707H63.72a9.726 9.726 0 00-5.54 1.72zm153.024-.008a4.7 4.7 0 013.631-1.712h86.076c5.398 0 9.774 4.376 9.774 9.774V261.2c0 5.262-4.16 9.553-9.371 9.765a9.76 9.76 0 004.236-8.054V138.684c0-5.397-4.376-9.773-9.774-9.773h-84.572z" fill="#fff"/></mask><g mask="url(#a)"><path d="M58.18 128.919l-.693-1.006-3.48 2.399 4.223-.172-.05-1.221zm145.738 7.694l.942.778 1.651-2h-2.593v1.222zm7.286-7.702l-.941-.778-1.652 2h2.593v-1.222zm90.111 142.054l-.694-1.006-3.48 2.398 4.223-.172-.049-1.22zM58.585 127.689c-.152 0-.304.003-.454.01l.1 2.441c.116-.005.235-.007.353-.007v-2.444zm54.411 0H58.584v2.444h54.412v-2.444zm31.664 0h-31.664v2.444h31.664v-2.444zm5.929 5.929a5.93 5.93 0 00-5.929-5.929v2.444a3.485 3.485 0 013.485 3.485h2.444zm3.485 3.485a3.485 3.485 0 01-3.485-3.485h-2.444a5.929 5.929 0 005.929 5.929v-2.444zm23.106 0h-23.106v2.444h23.106v-2.444zm23.107 0H177.18v2.444h23.107v-2.444zm2.689-1.268a3.473 3.473 0 01-2.689 1.268v2.444a5.922 5.922 0 004.573-2.156l-1.884-1.556zm.942-.444h-21.603v2.444h21.603v-2.444zm-21.603 0h-23.106v2.444h23.106v-2.444zm-23.106 0a3.484 3.484 0 01-3.485-3.485h-2.444a5.929 5.929 0 005.929 5.929v-2.444zm-3.485-3.485a5.929 5.929 0 00-5.929-5.928v2.443a3.485 3.485 0 013.485 3.485h2.444zm-5.929-5.928H118.13v2.443h31.665v-2.443zm-31.665 0H63.72v2.443h54.41v-2.443zm-54.41 0c-2.313 0-4.461.714-6.233 1.935l1.387 2.013a8.505 8.505 0 014.845-1.505v-2.443zm151.115 0a5.918 5.918 0 00-4.572 2.155l1.884 1.556a3.476 3.476 0 012.688-1.268v-2.443zm31.665 0h-31.665v2.443H246.5v-2.443zm54.411 0H246.5v2.443h54.411v-2.443zm10.995 10.995c0-6.072-4.923-10.995-10.995-10.995v2.443a8.552 8.552 0 018.552 8.552h2.443zm0 124.227V136.973h-2.443V261.2h2.443zm-10.542 10.985c5.863-.237 10.542-5.065 10.542-10.985h-2.443a8.552 8.552 0 01-8.197 8.544l.098 2.441zm.644-.214a10.983 10.983 0 004.763-9.06h-2.443a8.541 8.541 0 01-3.707 7.048l1.387 2.012zm4.763-9.06V138.684h-2.443v124.227h2.443zm0-124.227c0-6.072-4.922-10.995-10.995-10.995v2.444a8.551 8.551 0 018.552 8.551h2.443zm-10.995-10.995h-54.411v2.444h54.411v-2.444zm-54.411 0h-30.161v2.444h30.161v-2.444z" fill="#000"/></g><path d="M366.034 309.696a5.905 5.905 0 005.905-5.905v-8.145a5.904 5.904 0 00-5.905-5.904H46.769a5.904 5.904 0 00-5.905 5.904v8.145a5.905 5.905 0 005.905 5.905h319.265z" fill="#000" stroke="#fff" stroke-width="1.05"/><path d="M370.921 308.067a5.905 5.905 0 005.905-5.905v-6.516a5.904 5.904 0 00-5.905-5.904H45.751v12.42a5.905 5.905 0 005.904 5.905h319.266z" fill="#fff" stroke="#000" stroke-width="1.05"/><path d="M54.913 295.443a3.461 3.461 0 000 6.923h15.475a3.462 3.462 0 000-6.923H54.913z" fill="#91A8ED" stroke="#000" stroke-width="1.05"/><path d="M120.07 290.267h90.069c1.265 0 2.489.445 3.457 1.257l3.436 2.883a7.651 7.651 0 004.918 1.789h47.709a7.657 7.657 0 005.283-2.117l2.434-2.324a5.38 5.38 0 013.714-1.488h89.831a5.38 5.38 0 015.379 5.38v8.145a5.378 5.378 0 01-5.379 5.378H120.07a5.38 5.38 0 01-5.38-5.378v-8.145a5.38 5.38 0 015.38-5.38z" fill="url(#paint1_linear_34_1497)" stroke="#000" stroke-width="1.05"/><path d="M170.158 131.331c6.635 0 12.013-5.379 12.013-12.014 0-6.634-5.378-12.013-12.013-12.013-6.634 0-12.013 5.379-12.013 12.013 0 6.635 5.379 12.014 12.013 12.014z" fill="#fff" stroke="#000" stroke-width="1.05"/><path d="M170.158 126.444a7.127 7.127 0 100-14.254 7.127 7.127 0 000 14.254z" fill="#000" stroke="#000" stroke-width="1.05"/><path d="M167.401 123.102a4.684 4.684 0 01-1.593-5.519" stroke="#fff" stroke-width="1.05" stroke-linecap="round" stroke-linejoin="round"/><path d="M171.583 169.406v58.641a5.904 5.904 0 01-5.904 5.905H84.233a5.905 5.905 0 01-5.904-5.905v-58.641a5.905 5.905 0 015.904-5.905h81.446a5.904 5.904 0 015.904 5.905z" fill="#000" stroke="#000" stroke-width="1.05"/><path d="M174.841 169.406v58.641a5.904 5.904 0 01-5.904 5.905H87.491a5.905 5.905 0 01-5.905-5.905v-58.641a5.905 5.905 0 015.905-5.905h81.446a5.904 5.904 0 015.904 5.905z" stroke="#000" stroke-width="1.05"/><path d="M275.019 169.406v58.641a5.905 5.905 0 01-5.905 5.905h-81.445a5.905 5.905 0 01-5.905-5.905v-58.641a5.905 5.905 0 015.905-5.905h81.445a5.905 5.905 0 015.905 5.905z" fill="#000" stroke="#000" stroke-width="1.05"/><path d="M277.462 169.406v58.641a5.904 5.904 0 01-5.904 5.905h-80.631a5.905 5.905 0 01-5.905-5.905v-58.641a5.905 5.905 0 015.905-5.905h80.631a5.904 5.904 0 015.904 5.905z" stroke="#000" stroke-width="1.05"/><path d="M142.275 290.639a.61.61 0 011.198 0l4.21 20.902 20.564 4.276a.611.611 0 010 1.196l-20.564 4.276-4.21 20.902a.61.61 0 01-1.198 0l-4.21-20.902-20.564-4.276a.611.611 0 010-1.196l20.564-4.276 4.21-20.902zm187.097-81.65a.612.612 0 00-1.198 0l-3.723 18.197-18.198 3.724a.61.61 0 000 1.197l18.198 3.724 3.723 18.197a.613.613 0 00.599.489c.29 0 .54-.205.599-.489l3.723-18.197 18.198-3.724a.612.612 0 000-1.197l-18.198-3.724-3.723-18.197z" fill="#fff" stroke="#000" stroke-width="1.05" stroke-linejoin="round"/><path d="M277.259 82.87c-17.205 0-31.153 13.948-31.153 31.153 0 17.206 13.948 31.153 31.153 31.153h44.795c17.205 0 31.153-13.947 31.153-31.153 0-17.205-13.948-31.152-31.153-31.152h-44.795z" fill="#000" stroke="#000" stroke-width="1.05"/><path d="M251.518 109.951c0-16.915 13.713-30.627 30.628-30.627h44.795c16.915 0 30.627 13.712 30.627 30.627s-13.712 30.627-30.627 30.628h-44.795c-16.915 0-30.628-13.713-30.628-30.628z" fill="url(#paint2_linear_34_1497)" stroke="#000" stroke-width="1.05"/><path d="M279.702 115.856a5.905 5.905 0 100-11.81 5.905 5.905 0 000 11.81zm24.434 0a5.905 5.905 0 100-11.81 5.905 5.905 0 000 11.81zm24.433 0a5.905 5.905 0 100-11.81 5.905 5.905 0 000 11.81z" fill="#000" stroke="#000" stroke-width="1.05"/><defs><linearGradient id="paint0_linear_34_1497" x1="100.074" y1="146.348" x2="243.011" y2="325.636" gradientUnits="userSpaceOnUse"><stop stop-color="#BEFFD2"/><stop offset="1" stop-color="#64FFFF"/></linearGradient><linearGradient id="paint1_linear_34_1497" x1="166.384" y1="292.569" x2="169.064" y2="323.235" gradientUnits="userSpaceOnUse"><stop stop-color="#BEFFD2"/><stop offset="1" stop-color="#64FFFF"/></linearGradient><linearGradient id="paint2_linear_34_1497" x1="266.166" y1="128.717" x2="299.94" y2="61.926" gradientUnits="userSpaceOnUse"><stop stop-color="#BEFFD2"/><stop offset="1" stop-color="#64FFFF"/></linearGradient></defs></svg>