<svg width="33" height="31" fill="none" xmlns="http://www.w3.org/2000/svg"><path d="M21.32.5c6.197 0 11.22 5.023 11.22 11.22v7.56c0 6.197-5.023 11.22-11.22 11.22h-9.755C5.368 30.5.345 25.477.345 19.28v-7.56C.345 5.523 5.368.5 11.565.5h9.755zm-9.755 2.927A8.293 8.293 0 003.27 11.72v7.56a8.293 8.293 0 008.294 8.293h9.755a8.293 8.293 0 008.293-8.293v-7.56a8.293 8.293 0 00-8.293-8.293h-9.755zm5.853 2.927a3.415 3.415 0 013.415 3.415v5.4a3.45 3.45 0 01.487-.035h1.22a3.415 3.415 0 013.414 3.415v4.634c0 .808-.655 1.463-1.463 1.463H9.125a1.464 1.464 0 01-1.463-1.463v-6.83a3.415 3.415 0 013.414-3.415h1.22c.166 0 .329.013.488.036V9.769a3.415 3.415 0 013.414-3.415h1.22zm-6.342 9.512a.487.487 0 00-.487.488v5.366h2.195v-5.366a.488.488 0 00-.488-.488h-1.22zm5.122-6.586a.488.488 0 00-.487.489v11.95h2.194v-3.17l.001-.035V9.769a.489.489 0 00-.488-.489h-1.22zm5.122 8.78a.488.488 0 00-.487.489v3.17h2.194v-3.17a.488.488 0 00-.487-.488h-1.22z" fill="url(#paint0_linear_34_853)"/><path d="M21.32.5c6.197 0 11.22 5.023 11.22 11.22v7.56c0 6.197-5.023 11.22-11.22 11.22h-9.755C5.368 30.5.345 25.477.345 19.28v-7.56C.345 5.523 5.368.5 11.565.5h9.755zm-9.755 2.927A8.293 8.293 0 003.27 11.72v7.56a8.293 8.293 0 008.294 8.293h9.755a8.293 8.293 0 008.293-8.293v-7.56a8.293 8.293 0 00-8.293-8.293h-9.755zm5.853 2.927a3.415 3.415 0 013.415 3.415v5.4a3.45 3.45 0 01.487-.035h1.22a3.415 3.415 0 013.414 3.415v4.634c0 .808-.655 1.463-1.463 1.463H9.125a1.464 1.464 0 01-1.463-1.463v-6.83a3.415 3.415 0 013.414-3.415h1.22c.166 0 .329.013.488.036V9.769a3.415 3.415 0 013.414-3.415h1.22zm-6.342 9.512a.487.487 0 00-.487.488v5.366h2.195v-5.366a.488.488 0 00-.488-.488h-1.22zm5.122-6.586a.488.488 0 00-.487.489v11.95h2.194v-3.17l.001-.035V9.769a.489.489 0 00-.488-.489h-1.22zm5.122 8.78a.488.488 0 00-.487.489v3.17h2.194v-3.17a.488.488 0 00-.487-.488h-1.22z" fill="url(#paint1_radial_34_853)"/><path d="M21.32.5c6.197 0 11.22 5.023 11.22 11.22v7.56c0 6.197-5.023 11.22-11.22 11.22h-9.755C5.368 30.5.345 25.477.345 19.28v-7.56C.345 5.523 5.368.5 11.565.5h9.755zm-9.755 2.927A8.293 8.293 0 003.27 11.72v7.56a8.293 8.293 0 008.294 8.293h9.755a8.293 8.293 0 008.293-8.293v-7.56a8.293 8.293 0 00-8.293-8.293h-9.755zm5.853 2.927a3.415 3.415 0 013.415 3.415v5.4a3.45 3.45 0 01.487-.035h1.22a3.415 3.415 0 013.414 3.415v4.634c0 .808-.655 1.463-1.463 1.463H9.125a1.464 1.464 0 01-1.463-1.463v-6.83a3.415 3.415 0 013.414-3.415h1.22c.166 0 .329.013.488.036V9.769a3.415 3.415 0 013.414-3.415h1.22zm-6.342 9.512a.487.487 0 00-.487.488v5.366h2.195v-5.366a.488.488 0 00-.488-.488h-1.22zm5.122-6.586a.488.488 0 00-.487.489v11.95h2.194v-3.17l.001-.035V9.769a.489.489 0 00-.488-.489h-1.22zm5.122 8.78a.488.488 0 00-.487.489v3.17h2.194v-3.17a.488.488 0 00-.487-.488h-1.22z" fill="url(#paint2_radial_34_853)" fill-opacity=".5"/><defs><radialGradient id="paint1_radial_34_853" cx="0" cy="0" r="1" gradientUnits="userSpaceOnUse" gradientTransform="matrix(13.38632 -1.28755 1.18995 12.3716 .853 26.573)"><stop stop-color="#96AAFF"/><stop offset="1" stop-color="#96AAFF" stop-opacity="0"/></radialGradient><radialGradient id="paint2_radial_34_853" cx="0" cy="0" r="1" gradientUnits="userSpaceOnUse" gradientTransform="rotate(93.698 14.38 16.249) scale(18.0632 1.88443)"><stop stop-color="#FFFCBE"/><stop offset="1" stop-color="#FFFCBE" stop-opacity="0"/></radialGradient><linearGradient id="paint0_linear_34_853" x1="6.745" y1="4.75" x2="29.918" y2="26.367" gradientUnits="userSpaceOnUse"><stop stop-color="#BEFFD2"/><stop offset=".462" stop-color="#D1FFF5"/><stop offset="1" stop-color="#64FFFF"/></linearGradient></defs></svg>