<svg width="24" height="24" viewBox="0 0 24 24" fill="none" xmlns="http://www.w3.org/2000/svg">
<path d="M14.0755 17.0754L13.9992 16.9137L9.84195 12.05L5.99609 15.3153V10.9373L10.3284 7.1247L10.4617 7.29711L14.3603 11.8585L18.9766 7.0232L16.4876 4.56695L23.9173 4.50879V11.8994L21.4091 9.42399L14.0755 17.0754Z" fill="#FFE6D5"/>
<path d="M23 19H5C4.44772 19 4 18.5523 4 18V6C4 5.44772 3.55228 5 3 5H2C1.44772 5 1 5.44772 1 6V21C1 21.5523 1.44772 22 2 22H23C23.5523 22 24 21.5523 24 21V20C24 19.4477 23.5523 19 23 19Z" fill="#FFE6D5"/>
</svg>
