<svg width="323" height="323" fill="none" xmlns="http://www.w3.org/2000/svg"><path d="M161.046 166.37c28.912.021 52.367-23.401 52.388-52.314.021-28.912-23.401-52.367-52.314-52.388-28.912-.02-52.367 23.401-52.388 52.314-.021 28.912 23.401 52.367 52.314 52.388zm-88.422 37.191c19.441.014 35.212-15.734 35.226-35.175.014-19.441-15.735-35.212-35.175-35.226-19.441-.014-35.212 15.735-35.226 35.176-.014 19.44 15.735 35.211 35.175 35.225zm209.879-35.956c-.014 19.437-15.934 35.189-35.569 35.175-19.634-.014-35.532-15.789-35.518-35.225.014-19.437 15.934-35.19 35.568-35.176 19.635.014 35.532 15.79 35.519 35.226z" fill="#000" stroke="#fff" stroke-width=".945"/><path d="M164.657 54.533c28.462.02 51.52 23.11 51.499 51.571-.02 28.463-23.11 51.52-51.572 51.5-28.463-.021-51.519-23.111-51.499-51.573.021-28.462 23.11-51.519 51.572-51.498z" fill="url(#paint0_linear_34_1528)" stroke="#000" stroke-width=".945"/><path d="M76.109 127.187c19.369.014 35.059 15.727 35.045 35.096-.014 19.369-15.726 35.059-35.095 35.046-19.37-.014-35.06-15.727-35.046-35.096.013-19.369 15.727-35.06 35.096-35.046z" fill="url(#paint1_linear_34_1528)" stroke="#000" stroke-width=".945"/><path d="M250.015 127.311c18.872.014 34.23 15.231 34.692 34.191l.011.905c-.015 19.378-15.582 35.059-34.753 35.046-19.172-.014-34.717-15.718-34.703-35.096.013-19.378 15.581-35.06 34.753-35.046z" fill="url(#paint2_linear_34_1528)" stroke="#000" stroke-width=".945"/><path d="M160.847 106.409l54.195.039M73.681 163.285l-31.9-.023m206.15.148l24.336 24.371" stroke="#000" stroke-width=".945" stroke-linecap="round" stroke-linejoin="round"/><path d="M286.498 246.621c.008-12.065-9.765-21.853-21.83-21.861l-209.236-.15c-12.065-.008-21.853 9.766-21.862 21.831-.008 12.064 9.766 21.852 21.83 21.861l209.237.149c12.065.009 21.852-9.765 21.861-21.83z" fill="#000" stroke="#fff" stroke-width=".9"/><path d="M268.13 218.092c12.053.009 21.817 9.786 21.808 21.839-.009 12.053-9.786 21.816-21.839 21.808l-209.236-.15c-12.053-.008-21.816-9.786-21.808-21.838.009-12.053 9.786-21.817 21.839-21.808l209.236.149z" fill="#91A8ED" stroke="#000" stroke-width=".945"/><path d="M69.653 233.938l-.008 11.662m45.831-8.195l-.003 5.488m50.085-8.881l-.008 11.662" stroke="#000" stroke-width=".945" stroke-linecap="round"/><path d="M144.978 233.996l-.008 11.663" stroke="#000" stroke-width="5.04" stroke-linecap="round"/><path d="M216.32 237.479l-.003 5.488m38.556-8.195l-.008 10.976" stroke="#000" stroke-width=".945" stroke-linecap="round"/><path d="M146.822 210.429c-.977 1.651-3.367 1.649-4.341-.004l-8.942-15.168c-.991-1.681.222-3.801 2.173-3.8l17.906.013c1.95.001 3.16 2.124 2.167 3.803l-8.963 15.156z" fill="#fff"/><path d="M76.677 73.663a.472.472 0 00-.926 0L72.444 89.57l-16.168 3.256a.472.472 0 000 .926l16.168 3.257 3.307 15.907a.473.473 0 00.926 0l3.307-15.907 16.169-3.257a.472.472 0 000-.926L79.984 89.57l-3.307-15.907zm173.88 0a.472.472 0 00-.926 0l-3.307 15.907-16.168 3.256a.472.472 0 000 .926l16.168 3.257 3.307 15.907a.473.473 0 00.926 0l3.307-15.907 16.169-3.257a.473.473 0 000-.926l-16.169-3.256-3.307-15.907z" fill="#fff" stroke="#000" stroke-width=".945" stroke-linejoin="round"/><path d="M63.975 240.029H266.52" stroke="#000" stroke-width=".945" stroke-linecap="round"/><defs><linearGradient id="paint0_linear_34_1528" x1="133.318" y1="68.774" x2="213.024" y2="138.157" gradientUnits="userSpaceOnUse"><stop stop-color="#BEFFD2"/><stop offset="1" stop-color="#64FFFF"/></linearGradient><linearGradient id="paint1_linear_34_1528" x1="54.691" y1="136.77" x2="109.164" y2="184.188" gradientUnits="userSpaceOnUse"><stop stop-color="#BEFFD2"/><stop offset="1" stop-color="#64FFFF"/></linearGradient><linearGradient id="paint2_linear_34_1528" x1="228.785" y1="136.909" x2="283.216" y2="183.766" gradientUnits="userSpaceOnUse"><stop stop-color="#BEFFD2"/><stop offset="1" stop-color="#64FFFF"/></linearGradient></defs></svg>