<svg width="1600" height="838" fill="none" xmlns="http://www.w3.org/2000/svg"><g clip-path="url(#clip0_110_381)"><path d="M-105.129 293.439l3.051-11.183 2.529.69 2.437 8.553 2.004-7.341 2.333.636-3.051 11.183-2.529-.69-2.437-8.553-2.004 7.342-2.333-.637zm11.965 3.265l3.052-11.183 7.65 2.088-.575 2.107-5.316-1.451-.752 2.755 4.83 1.318-.575 2.107-4.83-1.318-1.15 4.214-2.334-.637zm11.002-6.75l.575-2.107 9.14 2.495-.574 2.107-3.404-.929-2.477 9.076-2.334-.637 2.477-9.076-3.403-.929zm12.28 13.104l3.052-11.183 5.446 1.486c1.815.495 2.475 1.651 1.98 3.466l-.593 2.172c-.495 1.815-1.65 2.475-3.466 1.979l-3.112-.849-.973 3.566-2.334-.637zm3.882-5.036l3.015.823c.324.088.53-.029.619-.354l.663-2.431c.089-.324-.03-.53-.353-.619l-3.015-.822-.929 3.403zm6.878 5.151l.903-3.306c.477-1.75 1.591-2.387 3.342-1.909l2.269.619c1.75.478 2.387 1.592 1.909 3.342l-.902 3.307c-.478 1.75-1.592 2.386-3.343 1.909l-2.269-.62c-1.75-.477-2.386-1.591-1.909-3.342zm2.193.773c-.095.345.031.566.377.66l2.01.548c.345.095.565-.031.66-.377l.99-3.63c.095-.346-.03-.566-.377-.66l-2.01-.549c-.345-.094-.565.031-.66.377l-.99 3.631zm8.244-3.933l.336-.274 1.88.514-.508 6.966.113.031 3.361-6.188 2.48.677-.233 7.041.114.031 3.1-6.258 1.88.513.151.406-3.96 7.749-3.339-.912.325-6.232-2.886 5.534-3.338-.912.524-8.686zm12.545 9.432l.902-3.306c.478-1.751 1.592-2.387 3.342-1.909l2.107.575c1.75.477 2.387 1.591 1.91 3.342l-.677 2.479-5.122-1.397-.27.988c-.094.346.032.566.377.661l4.279 1.167-.332 1.216-1.171.464-3.436-.938c-1.75-.478-2.387-1.592-1.91-3.342zm2.93-1.934l2.886.787.252-.924c.094-.345-.032-.566-.377-.66l-1.848-.504c-.346-.094-.566.031-.66.377l-.252.924zm5.851 7.152l2.035-7.456c.6-.625 1.468-.783 2.602-.474l1.75.478.774.995-.332 1.215-2.123-.579c-.324-.089-.568-.068-.73.061l-1.74 6.37-2.236-.61zm10.511 2.868l3.273-11.993 2.237.61-.938 3.436 2.496.681c1.75.478 2.387 1.592 1.91 3.342l-.903 3.307c-.478 1.75-1.592 2.386-3.342 1.909l-4.733-1.292zm2.768-1.334l2.366.645c.346.095.566-.031.66-.377l.99-3.63c.095-.346-.03-.566-.376-.66l-2.367-.646-1.273 4.668zm8.16-4.513l.32-.278 1.928.526.172 7.152.163.044 3.781-6.073 1.93.527.133.402-6.709 10.481-1.928-.526-.134-.403 1.764-2.635-1.086-.297-.335-8.92zm11.693 12.02l3.052-11.183 2.529.69 2.437 8.554 2.003-7.342 2.334.637-3.052 11.183-2.528-.69-2.437-8.554-2.004 7.342-2.334-.637zm12.547.499l1.566-5.738c.495-1.815 1.65-2.475 3.466-1.979l3.695 1.008c1.815.496 2.475 1.651 1.98 3.466l-1.566 5.737c-.495 1.816-1.65 2.476-3.466 1.98l-3.695-1.008c-1.816-.496-2.475-1.651-1.98-3.466zm2.299.766c-.089.325.029.531.353.619l3.5.956c.325.088.531-.03.62-.354l1.636-5.997c.089-.324-.03-.53-.353-.618l-3.501-.956c-.324-.088-.53.03-.619.354l-1.636 5.996zm10.49-5.896l.411-.358 2.059.562.067 9.77.26.071 5.037-8.377 2.042.557.173.517-6.11 9.879-3.695-1.009-.244-11.612zm7.174 13.033l6.255-9.838 3.566.973.39 11.652-.411.358-1.945-.531-.062-2.455-4.376-1.194-1.3 2.083-1.944-.53-.173-.518zm4.624-2.969l3.112.849-.143-5.09-.26-.07-2.709 4.311zm76.551 25.593l3.052-11.183 2.528.69 2.437 8.554 2.004-7.342 2.334.637-3.052 11.183-2.528-.69-2.438-8.554-2.003 7.342-2.334-.637zm11.965 3.266l3.052-11.184 7.65 2.088-.575 2.107-5.316-1.451-.752 2.756 4.83 1.318-.575 2.107-4.83-1.318-1.15 4.213-2.334-.636zm11.002-6.75l.575-2.107 9.141 2.495-.575 2.106-3.403-.928-2.477 9.076-2.334-.637 2.477-9.076-3.404-.929zm12.281 13.103l3.052-11.183 5.445 1.486c1.815.496 2.475 1.651 1.98 3.466l-.593 2.172c-.495 1.815-1.65 2.475-3.466 1.98l-3.111-.849-.973 3.565-2.334-.637zm3.882-5.035l3.014.822c.324.089.531-.029.619-.353l.663-2.431c.089-.324-.029-.531-.353-.619l-3.015-.823-.928 3.404zm6.878 5.151l.902-3.307c.478-1.75 1.592-2.386 3.342-1.909l2.269.62c1.751.477 2.387 1.591 1.909 3.342l-.902 3.306c-.478 1.75-1.592 2.387-3.342 1.909l-2.269-.619c-1.751-.478-2.387-1.592-1.909-3.342zm2.192.772c-.094.346.031.566.377.66l2.01.549c.346.094.566-.032.66-.377l.991-3.631c.094-.346-.031-.566-.377-.66l-2.01-.548c-.346-.095-.566.031-.66.377l-.991 3.63zm8.244-3.932l.336-.274 1.88.513-.508 6.966.114.031 3.36-6.188 2.48.677-.232 7.042.113.031 3.101-6.259 1.88.513.151.407-3.961 7.748-3.339-.911.326-6.233-2.886 5.534-3.339-.911.524-8.686zm12.545 9.431l.903-3.306c.477-1.75 1.591-2.387 3.342-1.909l2.107.575c1.75.478 2.386 1.592 1.909 3.342l-.677 2.48-5.122-1.398-.269.989c-.095.346.031.566.377.66l4.278 1.168-.331 1.215-1.172.464-3.436-.938c-1.75-.477-2.386-1.591-1.909-3.342zm2.931-1.934l2.885.788.252-.924c.095-.346-.031-.566-.377-.66l-1.847-.505c-.346-.094-.566.032-.661.377l-.252.924zm5.851 7.152l2.034-7.455c.601-.626 1.468-.784 2.602-.474l1.751.477.773.995-.331 1.216-2.124-.58c-.324-.088-.567-.068-.73.062l-1.739 6.369-2.236-.61zm10.511 2.868l3.273-11.993 2.236.61-.937 3.436 2.496.682c1.75.477 2.386 1.591 1.909 3.342l-.903 3.306c-.477 1.75-1.591 2.387-3.342 1.909l-4.732-1.292zm2.767-1.334l2.366.646c.346.094.566-.032.66-.377l.991-3.631c.095-.346-.031-.566-.377-.66l-2.366-.646-1.274 4.668zm8.16-4.513l.319-.278 1.929.526.173 7.153.162.044 3.782-6.073 1.928.526.135.402-6.709 10.481-1.929-.526-.134-.402 1.764-2.636-1.086-.296-.334-8.921zm11.694 12.021l3.052-11.183 2.528.69 2.437 8.554 2.004-7.342 2.334.637-3.052 11.183-2.528-.69-2.438-8.554-2.003 7.342-2.334-.637zm12.546.498l1.566-5.737c.496-1.815 1.651-2.475 3.466-1.98l3.695 1.009c1.816.495 2.475 1.65 1.98 3.465l-1.566 5.738c-.495 1.815-1.65 2.475-3.466 1.98l-3.695-1.009c-1.815-.495-2.475-1.651-1.98-3.466zm2.299.767c-.089.324.029.53.353.619l3.501.955c.324.089.531-.029.619-.353l1.637-5.997c.088-.324-.03-.531-.354-.619l-3.501-.955c-.324-.089-.53.029-.619.353l-1.636 5.997zm10.491-5.897l.411-.358 2.058.562.068 9.771.259.07 5.038-8.377 2.042.557.172.518-6.109 9.878-3.695-1.008-.244-11.613zm7.174 13.034l6.255-9.839 3.565.973.39 11.652-.411.358-1.945-.531-.061-2.454-4.376-1.195-1.3 2.084-1.945-.531-.172-.517zm4.624-2.97l3.112.849-.144-5.089-.259-.071-2.709 4.311zm76.549 25.592l3.052-11.183 2.528.69 2.438 8.554 2.003-7.342 2.334.637-3.052 11.183-2.528-.69-2.437-8.554-2.004 7.342-2.334-.637zm11.966 3.266l3.052-11.183 7.65 2.087-.575 2.107-5.316-1.45-.752 2.755 4.829 1.318-.575 2.107-4.829-1.318-1.15 4.214-2.334-.637zm11.001-6.75l.575-2.107 9.141 2.495-.575 2.107-3.403-.929-2.477 9.076-2.334-.637 2.477-9.076-3.404-.929zm12.281 13.104l3.052-11.184 5.446 1.487c1.815.495 2.475 1.65 1.979 3.466l-.592 2.171c-.496 1.816-1.651 2.475-3.466 1.98l-3.112-.849-.973 3.565-2.334-.636zm3.882-5.036l3.014.823c.325.088.531-.03.619-.354l.664-2.431c.088-.324-.03-.531-.354-.619l-3.014-.823-.929 3.404zm6.878 5.151l.902-3.306c.478-1.751 1.592-2.387 3.342-1.909l2.27.619c1.75.477 2.386 1.591 1.909 3.342l-.903 3.306c-.477 1.751-1.591 2.387-3.342 1.909l-2.269-.619c-1.75-.478-2.387-1.592-1.909-3.342zm2.192.772c-.094.346.032.566.378.66l2.009.549c.346.094.566-.031.66-.377l.991-3.631c.095-.345-.031-.565-.377-.66l-2.01-.548c-.345-.095-.565.031-.66.377l-.991 3.63zm8.245-3.932l.336-.274 1.88.513-.508 6.967.113.031 3.361-6.188 2.479.676-.232 7.042.113.031 3.102-6.259 1.88.513.15.407-3.961 7.748-3.338-.911.325-6.233-2.886 5.534-3.339-.911.525-8.686zm12.545 9.432l.902-3.307c.478-1.75 1.592-2.386 3.342-1.909l2.107.575c1.75.478 2.387 1.592 1.909 3.342l-.677 2.48-5.121-1.398-.27.989c-.094.346.031.566.377.66l4.279 1.168-.332 1.215-1.171.464-3.436-.937c-1.751-.478-2.387-1.592-1.909-3.342zm2.931-1.935l2.884.788.253-.924c.094-.346-.032-.566-.378-.66l-1.847-.504c-.346-.095-.566.031-.66.377l-.252.923zm5.85 7.152l2.035-7.455c.6-.626 1.467-.784 2.602-.474l1.75.478.774.994-.332 1.216-2.123-.58c-.324-.088-.568-.068-.731.062l-1.738 6.37-2.237-.611zm10.511 2.869l3.273-11.994 2.237.611-.938 3.436 2.496.681c1.75.477 2.387 1.591 1.909 3.342l-.902 3.306c-.478 1.751-1.592 2.387-3.343 1.909l-4.732-1.291zm2.767-1.335l2.367.646c.345.094.565-.031.66-.377l.991-3.631c.094-.345-.032-.565-.378-.66l-2.366-.646-1.274 4.668zm8.16-4.512l.32-.279 1.928.527.173 7.152.162.044 3.782-6.073 1.929.526.134.403-6.709 10.481-1.929-.527-.134-.402 1.764-2.636-1.086-.296-.334-8.92zm11.694 12.02l3.052-11.183 2.528.69 2.438 8.554 2.003-7.342 2.334.637-3.052 11.183-2.528-.69-2.437-8.554-2.004 7.342-2.334-.637zm12.547.498l1.565-5.737c.496-1.815 1.651-2.475 3.466-1.98l3.696 1.009c1.815.495 2.475 1.65 1.979 3.466l-1.565 5.737c-.496 1.815-1.651 2.475-3.466 1.98l-3.696-1.009c-1.815-.495-2.475-1.65-1.979-3.466zm2.298.767c-.088.324.03.531.354.619l3.5.955c.325.089.531-.029.619-.353l1.637-5.997c.088-.324-.029-.53-.354-.619l-3.5-.955c-.325-.089-.531.029-.619.353l-1.637 5.997zm10.491-5.896l.411-.358 2.058.561.068 9.771.259.071 5.038-8.378 2.042.558.172.517-6.109 9.878-3.695-1.008-.244-11.612zm7.174 13.033l6.255-9.839 3.565.973.39 11.652-.411.358-1.945-.53-.061-2.455-4.376-1.194-1.3 2.083-1.945-.531-.172-.517zm4.624-2.97l3.112.849-.144-5.089-.259-.071-2.709 4.311zm76.551 25.593l3.052-11.184 2.528.69 2.437 8.554 2.004-7.342 2.334.637-3.052 11.183-2.529-.69-2.437-8.553-2.003 7.341-2.334-.636zm11.965 3.265l3.052-11.183 7.65 2.088-.575 2.107-5.316-1.451-.752 2.755 4.83 1.318-.575 2.107-4.83-1.318-1.15 4.214-2.334-.637zm11.002-6.75l.575-2.107 9.141 2.495-.575 2.107-3.404-.929-2.477 9.076-2.333-.637 2.477-9.076-3.404-.929zm12.28 13.104l3.052-11.183 5.446 1.486c1.815.495 2.475 1.651 1.98 3.466l-.593 2.172c-.495 1.815-1.651 2.475-3.466 1.979l-3.112-.849-.973 3.566-2.334-.637zm3.882-5.036l3.015.823c.324.088.53-.03.619-.354l.663-2.431c.089-.324-.029-.53-.353-.619l-3.015-.822-.929 3.403zm6.879 5.151l.902-3.306c.478-1.751 1.592-2.387 3.342-1.909l2.269.619c1.75.478 2.387 1.592 1.909 3.342l-.902 3.306c-.478 1.751-1.592 2.387-3.342 1.909l-2.269-.619c-1.751-.477-2.387-1.592-1.909-3.342zm2.192.773c-.094.345.031.565.377.66l2.01.548c.346.095.566-.031.66-.377l.991-3.63c.094-.346-.032-.566-.377-.661l-2.01-.548c-.346-.094-.566.031-.66.377l-.991 3.631zm8.244-3.933l.336-.274 1.88.513-.508 6.967.114.031 3.36-6.188 2.48.677-.233 7.041.114.031 3.101-6.259 1.88.513.15.407-3.96 7.748-3.339-.911.325-6.232-2.886 5.533-3.338-.911.524-8.686zm12.545 9.432l.902-3.306c.478-1.751 1.592-2.387 3.342-1.91l2.107.575c1.751.478 2.387 1.592 1.909 3.343l-.676 2.479-5.122-1.397-.27.988c-.094.346.032.566.378.66l4.278 1.168-.331 1.216-1.172.464-3.436-.938c-1.75-.478-2.387-1.592-1.909-3.342zm2.931-1.934l2.885.787.252-.924c.094-.346-.031-.566-.377-.66l-1.848-.504c-.345-.095-.565.031-.66.377l-.252.924zm5.851 7.151l2.034-7.455c.6-.626 1.468-.784 2.602-.474l1.751.478.773.994-.332 1.216-2.123-.579c-.324-.089-.568-.068-.731.061l-1.738 6.37-2.236-.611zm10.51 2.869l3.274-11.993 2.236.61-.938 3.436 2.496.681c1.751.478 2.387 1.592 1.909 3.342l-.902 3.306c-.478 1.751-1.592 2.387-3.342 1.909l-4.733-1.291zm2.768-1.335l2.366.646c.346.095.566-.031.66-.377l.991-3.63c.094-.346-.031-.566-.377-.661l-2.366-.645-1.274 4.667zm8.16-4.512l.319-.279 1.929.527.173 7.152.162.044 3.782-6.073 1.928.527.134.402-6.709 10.481-1.928-.526-.134-.403 1.764-2.635-1.086-.297-.334-8.92zm11.694 12.02l3.052-11.183 2.528.69 2.437 8.554 2.004-7.342 2.334.637-3.052 11.183-2.529-.69-2.437-8.554-2.003 7.342-2.334-.637zm12.546.499l1.566-5.738c.495-1.815 1.651-2.475 3.466-1.979l3.695 1.008c1.815.495 2.475 1.651 1.98 3.466l-1.566 5.737c-.495 1.816-1.651 2.475-3.466 1.98l-3.695-1.008c-1.815-.496-2.475-1.651-1.98-3.466zm2.299.766c-.089.324.029.531.353.619l3.501.956c.324.088.53-.03.619-.354l1.636-5.997c.089-.324-.029-.53-.353-.619l-3.501-.955c-.324-.088-.53.029-.619.354l-1.636 5.996zm10.49-5.896l.411-.358 2.059.562.067 9.77.26.071 5.037-8.377 2.043.557.172.517-6.109 9.879-3.695-1.009-.245-11.612zm7.174 13.033l6.255-9.839 3.566.974.39 11.652-.411.358-1.945-.531-.062-2.455-4.375-1.194-1.3 2.083-1.945-.531-.173-.517zm4.625-2.97l3.111.85-.143-5.09-.259-.07-2.709 4.31zm76.549 25.594l3.052-11.183 2.528.69 2.437 8.554 2.004-7.342 2.334.637-3.052 11.183-2.528-.69-2.437-8.554-2.004 7.342-2.334-.637zm11.966 3.265l3.052-11.183 7.649 2.088-.575 2.107-5.316-1.451-.752 2.755 4.83 1.319-.575 2.106-4.83-1.318-1.15 4.214-2.333-.637zm11.001-6.749l.575-2.107 9.141 2.494-.575 2.107-3.403-.928-2.477 9.076-2.334-.637 2.477-9.076-3.404-.929zm12.281 13.103l3.052-11.183 5.445 1.486c1.816.496 2.475 1.651 1.98 3.466l-.593 2.172c-.495 1.815-1.65 2.475-3.465 1.98l-3.112-.85-.973 3.566-2.334-.637zm3.882-5.035l3.014.822c.324.089.531-.029.619-.353l.664-2.431c.088-.325-.03-.531-.354-.619l-3.014-.823-.929 3.404zm6.878 5.151l.902-3.307c.478-1.75 1.592-2.386 3.342-1.909l2.269.619c1.751.478 2.387 1.592 1.909 3.343l-.902 3.306c-.478 1.75-1.592 2.387-3.342 1.909l-2.269-.619c-1.75-.478-2.387-1.592-1.909-3.342zm2.192.772c-.094.346.032.566.377.66l2.01.549c.346.094.566-.032.66-.377l.991-3.631c.094-.346-.031-.566-.377-.66l-2.01-.549c-.346-.094-.566.032-.66.378l-.991 3.63zm8.245-3.932l.336-.274 1.88.513-.508 6.966.113.031 3.361-6.188 2.479.677-.232 7.042.113.031 3.101-6.259 1.88.513.151.407-3.961 7.748-3.338-.911.325-6.233-2.886 5.534-3.339-.911.525-8.686zm12.544 9.431l.903-3.306c.477-1.75 1.591-2.387 3.342-1.909l2.107.575c1.75.478 2.386 1.592 1.909 3.342l-.677 2.48-5.121-1.398-.27.989c-.095.345.031.566.377.66l4.279 1.168-.332 1.215-1.172.464-3.436-.938c-1.75-.477-2.386-1.591-1.909-3.342zm2.931-1.934l2.885.787.252-.923c.095-.346-.031-.566-.377-.661l-1.847-.504c-.346-.094-.566.032-.66.377l-.253.924zm5.851 7.152l2.034-7.455c.601-.626 1.468-.784 2.603-.475l1.75.478.773.995-.331 1.215-2.123-.579c-.325-.088-.568-.068-.731.062l-1.739 6.369-2.236-.61zm10.511 2.868l3.273-11.993 2.236.61-.937 3.436 2.496.681c1.75.478 2.386 1.592 1.909 3.343l-.903 3.306c-.477 1.75-1.591 2.387-3.342 1.909l-4.732-1.292zm2.767-1.334l2.366.646c.346.094.566-.032.661-.377l.99-3.631c.095-.346-.031-.566-.377-.66l-2.366-.646-1.274 4.668zm8.16-4.513l.32-.278 1.928.526.173 7.152.162.045 3.782-6.073 1.929.526.134.402-6.709 10.481-1.929-.526-.134-.402 1.764-2.636-1.086-.296-.334-8.921zm11.694 12.021l3.052-11.183 2.528.69 2.437 8.554 2.004-7.342 2.334.637-3.052 11.183-2.528-.69-2.438-8.554-2.003 7.342-2.334-.637zm12.547.498l1.565-5.737c.496-1.815 1.651-2.475 3.466-1.98l3.695 1.008c1.816.496 2.476 1.651 1.98 3.466l-1.566 5.738c-.495 1.815-1.65 2.475-3.465 1.98l-3.696-1.009c-1.815-.495-2.475-1.651-1.979-3.466zm2.298.767c-.088.324.029.53.354.619l3.5.955c.324.088.531-.029.619-.354l1.637-5.996c.088-.324-.03-.531-.354-.619l-3.501-.956c-.324-.088-.53.03-.618.354l-1.637 5.997zm10.491-5.897l.411-.358 2.058.562.068 9.77.259.071 5.038-8.377 2.042.557.172.518-6.109 9.878-3.695-1.008-.244-11.613zm7.174 13.034l6.255-9.839 3.565.973.39 11.652-.411.358-1.945-.531-.061-2.454-4.376-1.195-1.3 2.084-1.945-.531-.172-.517zm4.624-2.97l3.112.849-.144-5.089-.259-.071-2.709 4.311zm76.555 25.592l3.05-11.183 2.53.69 2.43 8.554 2.01-7.342 2.33.637-3.05 11.183-2.53-.69-2.44-8.554-2 7.342-2.33-.637zm11.96 3.266l3.05-11.183 7.65 2.087-.57 2.107-5.32-1.451-.75 2.756 4.83 1.318-.58 2.107-4.83-1.318-1.15 4.214-2.33-.637zm11-6.75l.58-2.107 9.14 2.495-.58 2.107-3.4-.929-2.48 9.076-2.33-.637 2.48-9.076-3.41-.929zm12.28 13.103l3.06-11.183 5.44 1.487c1.82.495 2.48 1.65 1.98 3.465l-.59 2.172c-.5 1.815-1.65 2.475-3.47 1.98l-3.11-.849-.97 3.565-2.34-.637zm3.89-5.035l3.01.822c.32.089.53-.029.62-.353l.66-2.431c.09-.324-.03-.531-.35-.619l-3.02-.823-.92 3.404zm6.87 5.151l.91-3.307c.47-1.75 1.59-2.386 3.34-1.909l2.27.62c1.75.477 2.38 1.591 1.91 3.342l-.91 3.306c-.47 1.75-1.59 2.387-3.34 1.909l-2.27-.619c-1.75-.478-2.38-1.592-1.91-3.342zm2.2.772c-.1.346.03.566.37.66l2.01.549c.35.094.57-.032.66-.377l.99-3.631c.1-.345-.03-.566-.37-.66l-2.01-.548c-.35-.095-.57.031-.66.377l-.99 3.63zm8.24-3.932l.34-.274 1.88.513-.51 6.966.11.031 3.36-6.188 2.48.677-.23 7.042.11.031 3.1-6.259 1.88.513.15.407-3.96 7.748-3.33-.911.32-6.233-2.89 5.534-3.33-.911.52-8.686zm12.54 9.431l.91-3.306c.47-1.75 1.59-2.387 3.34-1.909l2.11.575c1.75.478 2.38 1.592 1.91 3.342l-.68 2.48-5.12-1.398-.27.989c-.1.346.03.566.37.66l4.28 1.168-.33 1.215-1.17.464-3.44-.937c-1.75-.478-2.38-1.592-1.91-3.343zm2.94-1.934l2.88.788.25-.924c.1-.346-.03-.566-.37-.66l-1.85-.505c-.35-.094-.57.032-.66.377l-.25.924zm5.85 7.152l2.03-7.455c.6-.626 1.47-.784 2.6-.474l1.75.477.78.995-.33 1.216-2.13-.58c-.32-.088-.57-.068-.73.062l-1.74 6.369-2.23-.61zm10.51 2.869l3.27-11.994 2.24.611-.94 3.435 2.5.682c1.75.477 2.38 1.591 1.9 3.342l-.9 3.306c-.48 1.75-1.59 2.387-3.34 1.909l-4.73-1.291zm2.76-1.335l2.37.646c.35.094.57-.032.66-.377l.99-3.631c.1-.345-.03-.566-.38-.66l-2.36-.646-1.28 4.668zm8.16-4.512l.32-.279 1.93.526.18 7.153.16.044 3.78-6.073 1.93.526.13.403-6.71 10.481-1.93-.527-.13-.402 1.76-2.636-1.08-.296-.34-8.92zm11.7 12.02l3.05-11.183 2.53.69 2.44 8.554 2-7.342 2.33.637-3.05 11.183-2.53-.69-2.43-8.554-2.01 7.342-2.33-.637zm12.55.498l1.56-5.737c.5-1.815 1.65-2.475 3.47-1.98l3.69 1.009c1.82.495 2.48 1.65 1.98 3.466l-1.56 5.737c-.5 1.815-1.65 2.475-3.47 1.98l-3.7-1.009c-1.81-.495-2.47-1.65-1.97-3.466zm2.29.767c-.08.324.03.53.36.619l3.5.955c.32.089.53-.029.62-.353l1.63-5.997c.09-.324-.03-.53-.35-.619l-3.5-.955c-.33-.089-.53.029-.62.353l-1.64 5.997zm10.49-5.897l.42-.358 2.05.562.07 9.771.26.07 5.04-8.377 2.04.558.17.517-6.11 9.878-3.69-1.008-.25-11.613zm7.18 13.034l6.25-9.839 3.57.973.39 11.652-.41.358-1.95-.53-.06-2.455-4.37-1.194-1.3 2.083-1.95-.531-.17-.517zm4.62-2.97l3.11.849-.14-5.089-.26-.071-2.71 4.311zm76.55 25.592l3.05-11.183 2.53.69 2.44 8.554 2-7.342 2.34.637-3.06 11.183-2.52-.69-2.44-8.554-2 7.342-2.34-.637zm11.97 3.266l3.05-11.183 7.65 2.087-.58 2.107-5.31-1.45-.75 2.755 4.83 1.318-.58 2.107-4.83-1.318-1.15 4.214-2.33-.637zm11-6.75l.57-2.107 9.15 2.495-.58 2.107-3.4-.929-2.48 9.076-2.33-.637 2.47-9.076-3.4-.929zm12.28 13.104l3.05-11.183 5.45 1.486c1.81.495 2.47 1.65 1.98 3.466l-.6 2.171c-.49 1.816-1.65 2.476-3.46 1.98l-3.11-.849-.98 3.566-2.33-.637zm3.88-5.036l3.02.823c.32.088.53-.03.61-.354l.67-2.431c.09-.324-.03-.53-.36-.619l-3.01-.823-.93 3.404zm6.88 5.151l.9-3.306c.48-1.751 1.59-2.387 3.34-1.909l2.27.619c1.75.478 2.39 1.592 1.91 3.342l-.9 3.306c-.48 1.751-1.59 2.387-3.34 1.909l-2.27-.619c-1.75-.478-2.39-1.592-1.91-3.342zm2.19.772c-.09.346.03.566.38.661l2.01.548c.34.094.56-.031.66-.377l.99-3.63c.09-.346-.03-.566-.38-.661l-2.01-.548c-.34-.094-.56.031-.66.377l-.99 3.63zm8.25-3.932l.33-.274 1.88.513-.51 6.967.12.031 3.36-6.188 2.48.676-.23 7.042.11.031 3.1-6.259 1.88.513.15.407-3.96 7.748-3.34-.911.33-6.233-2.89 5.534-3.34-.911.53-8.686zm12.54 9.432l.9-3.307c.48-1.75 1.6-2.386 3.35-1.909l2.1.575c1.75.478 2.39 1.592 1.91 3.342l-.68 2.48-5.12-1.397-.27.988c-.09.346.03.566.38.66l4.28 1.168-.33 1.216-1.17.464-3.44-.938c-1.75-.478-2.39-1.592-1.91-3.342zm2.93-1.934l2.89.787.25-.924c.09-.346-.03-.566-.38-.66l-1.85-.504c-.34-.095-.56.031-.66.377l-.25.924zm5.85 7.151l2.04-7.455c.6-.626 1.46-.784 2.6-.474l1.75.478.77.994-.33 1.216-2.12-.58c-.33-.088-.57-.067-.73.062l-1.74 6.37-2.24-.611zm10.51 2.869l3.28-11.994 2.23.611-.93 3.436 2.49.681c1.75.478 2.39 1.592 1.91 3.342l-.9 3.306c-.48 1.751-1.59 2.387-3.34 1.909l-4.74-1.291zm2.77-1.335l2.37.646c.34.094.56-.031.66-.377l.99-3.63c.09-.346-.03-.566-.38-.661l-2.37-.645-1.27 4.667zm8.16-4.512l.32-.279 1.93.527.17 7.152.16.044 3.79-6.073 1.92.526.14.403-6.71 10.481-1.93-.527-.13-.402 1.76-2.636-1.08-.296-.34-8.92zm11.69 12.02l3.06-11.183 2.53.69 2.43 8.554 2.01-7.342 2.33.637-3.05 11.183-2.53-.69-2.44-8.554-2 7.342-2.34-.637zm12.55.499l1.57-5.738c.49-1.815 1.65-2.475 3.46-1.98l3.7 1.009c1.81.495 2.47 1.651 1.98 3.466l-1.57 5.737c-.49 1.815-1.65 2.475-3.46 1.98l-3.7-1.009c-1.81-.495-2.47-1.65-1.98-3.465zm2.3.766c-.09.324.03.531.35.619l3.5.955c.33.089.53-.029.62-.353l1.64-5.997c.09-.324-.03-.53-.35-.619l-3.5-.955c-.33-.089-.54.029-.62.353l-1.64 5.997zm10.49-5.896l.41-.358 2.06.561.07 9.771.26.071 5.03-8.378 2.05.558.17.517-6.11 9.878-3.7-1.008-.24-11.612zm7.17 13.033l6.26-9.839 3.57.973.39 11.653-.42.358-1.94-.531-.06-2.455-4.38-1.194-1.3 2.083-1.94-.531-.18-.517zm4.63-2.97l3.11.85-.14-5.09-.26-.071-2.71 4.311zm76.55 25.594l3.05-11.183 2.53.69 2.44 8.554 2-7.342 2.33.637-3.05 11.183-2.53-.69-2.43-8.554-2.01 7.342-2.33-.637zm11.96 3.265l3.06-11.183 7.65 2.088-.58 2.107-5.31-1.451-.76 2.755 4.83 1.318-.57 2.107-4.83-1.318-1.15 4.214-2.34-.637zm11.01-6.749l.57-2.107 9.14 2.494-.57 2.107-3.41-.929-2.47 9.076-2.34-.636 2.48-9.077-3.4-.928zm12.28 13.103l3.05-11.183 5.44 1.486c1.82.495 2.48 1.651 1.98 3.466l-.59 2.172c-.49 1.815-1.65 2.475-3.46 1.98l-3.12-.85-.97 3.566-2.33-.637zm3.88-5.036l3.01.823c.33.089.53-.029.62-.353l.67-2.432c.08-.324-.03-.53-.36-.618l-3.01-.823-.93 3.403zm6.88 5.151l.9-3.306c.48-1.75 1.59-2.387 3.34-1.909l2.27.619c1.75.478 2.39 1.592 1.91 3.342l-.9 3.307c-.48 1.75-1.59 2.386-3.34 1.909l-2.27-.62c-1.75-.477-2.39-1.591-1.91-3.342zm2.19.773c-.09.346.03.566.38.66l2.01.548c.34.095.56-.031.66-.377l.99-3.63c.09-.346-.03-.566-.38-.66l-2.01-.549c-.35-.094-.57.032-.66.377l-.99 3.631zm8.24-3.932l.34-.274 1.88.513-.51 6.966.12.031 3.36-6.188 2.48.677-.24 7.041.12.031 3.1-6.258 1.88.513.15.406-3.96 7.749-3.34-.911.32-6.233-2.88 5.534-3.34-.911.52-8.686zm12.55 9.431l.9-3.306c.48-1.751 1.59-2.387 3.34-1.909l2.11.575c1.75.477 2.39 1.591 1.91 3.342l-.68 2.48-5.12-1.398-.27.989c-.09.345.03.565.38.66l4.28 1.167-.33 1.216-1.18.464-3.43-.938c-1.75-.477-2.39-1.592-1.91-3.342zm2.93-1.934l2.88.787.26-.924c.09-.345-.03-.565-.38-.66l-1.85-.504c-.34-.094-.56.031-.66.377l-.25.924zm5.85 7.152l2.03-7.456c.61-.625 1.47-.783 2.61-.474l1.75.478.77.995-.33 1.215-2.12-.579c-.33-.089-.57-.068-.73.062l-1.74 6.369-2.24-.61zm10.51 2.868l3.27-11.993 2.24.61-.94 3.436 2.5.681c1.75.478 2.39 1.592 1.91 3.342l-.9 3.307c-.48 1.75-1.6 2.386-3.35 1.909l-4.73-1.292zm2.77-1.334l2.36.645c.35.095.57-.031.66-.377l1-3.63c.09-.346-.04-.566-.38-.66l-2.37-.646-1.27 4.668zm8.16-4.513l.32-.278 1.93.526.17 7.152.16.044 3.78-6.073 1.93.527.14.402-6.71 10.481-1.93-.526-.14-.402 1.77-2.636-1.09-.297-.33-8.92zm11.69 12.021l3.05-11.183 2.53.69 2.44 8.553 2-7.342 2.34.637-3.05 11.183-2.53-.69-2.44-8.553-2 7.342-2.34-.637zm12.55.498l1.56-5.737c.5-1.816 1.66-2.476 3.47-1.98l3.7 1.008c1.81.496 2.47 1.651 1.98 3.466l-1.57 5.738c-.5 1.815-1.65 2.475-3.47 1.979l-3.69-1.008c-1.82-.496-2.48-1.651-1.98-3.466zm2.3.767c-.09.324.03.53.35.618l3.5.956c.33.088.53-.03.62-.354l1.64-5.996c.09-.325-.03-.531-.36-.619l-3.5-.956c-.32-.088-.53.03-.62.354l-1.63 5.997zm10.49-5.897l.41-.358 2.06.562.07 9.77.25.071 5.04-8.377 2.04.557.18.517-6.11 9.879-3.7-1.009-.24-11.612zm7.17 13.033l6.26-9.838 3.56.973.39 11.652-.41.358-1.94-.531-.06-2.455-4.38-1.194-1.3 2.083-1.95-.53-.17-.518zm4.63-2.969l3.11.849-.15-5.089-.25-.071-2.71 4.311zM-119.654 259L1732.61 764.489l-.316 1.157L-119.97 260.158zm-12.637 46.307l1852.264 505.489-.316 1.157-1852.264-505.488z" opacity=".2" fill="#999"/><g opacity=".4"><path d="M-103.753 782.606l-3.001-11.197 2.532-.678 6.416 6.16-1.97-7.352 2.337-.626 3 11.197-2.531.679-6.416-6.16 1.969 7.351-2.336.626zm11.98-3.21l-3-11.197 7.66-2.052.565 2.109-5.323 1.426.74 2.759 4.835-1.296.565 2.11-4.836 1.296 1.131 4.219-2.337.626zm6.1-11.374l-.565-2.11 9.153-2.452.565 2.109-3.408.913 2.435 9.088-2.337.626-2.434-9.088-3.408.914zm17.212 5.128l-3-11.197 5.452-1.461c1.817-.487 2.97.178 3.456 1.996l.583 2.174c.487 1.818-.178 2.97-1.996 3.457l-3.115.835.956 3.57-2.337.626zm.814-6.306l3.019-.809c.324-.087.443-.292.356-.617l-.652-2.434c-.087-.325-.293-.443-.617-.357l-3.019.809.913 3.408zm8.537.982l-.887-3.31c-.47-1.753.172-2.864 1.925-3.333l2.272-.609c1.752-.47 2.863.172 3.333 1.924l.887 3.311c.47 1.752-.172 2.864-1.925 3.333l-2.271.609c-1.753.469-2.864-.172-3.334-1.925zm2.283-.437c.093.346.312.473.658.38l2.013-.539c.346-.093.473-.313.38-.659l-.974-3.635c-.093-.346-.312-.473-.658-.38l-2.013.539c-.346.093-.473.312-.38.659l.974 3.635zm5.139-7.552l.152-.406 1.882-.504 3.073 6.273.113-.031-.216-7.038 2.483-.665 3.348 6.199.114-.03-.476-6.969 1.882-.505.335.276.484 8.688-3.343.896-2.86-5.547.297 6.234-3.343.896-3.925-7.767zm15.588 1.824l-.887-3.311c-.47-1.752.172-2.863 1.925-3.333l2.11-.565c1.752-.47 2.863.172 3.333 1.924l.665 2.483-5.128 1.374.265.99c.093.346.313.473.659.38l4.284-1.148.326 1.217-.778.992-3.44.921c-1.753.47-2.864-.172-3.334-1.924zm1.557-3.148l2.889-.774-.248-.925c-.093-.346-.313-.473-.659-.38l-1.85.496c-.346.092-.472.312-.38.658l.248.925zm8.658 3.229l-2-7.465c.203-.843.872-1.417 2.008-1.721l1.753-.47 1.169.47.326 1.217-2.126.569c-.324.087-.524.228-.6.422l1.709 6.378-2.24.6zm10.524-2.82l-3.218-12.009 2.24-.6.921 3.44 2.5-.669c1.752-.47 2.863.172 3.333 1.924l.887 3.311c.47 1.752-.172 2.863-1.925 3.333l-4.738 1.27zm1.717-2.548l2.37-.635c.346-.092.472-.312.38-.658l-.974-3.635c-.093-.346-.313-.473-.659-.38l-2.369.635 1.252 4.673zm4.774-8.01l.135-.401 1.932-.518 3.753 6.091.163-.044.205-7.151 1.931-.518.319.28-.512 12.434-1.931.518-.319-.28.196-3.166-1.088.291-4.784-7.536zm16.158 4.489l-3-11.197 2.531-.679 6.417 6.16-1.97-7.351 2.337-.626 3 11.197-2.532.678-6.416-6.159 1.97 7.351-2.337.626zm11.088-5.893l-1.54-5.745c-.486-1.817.179-2.969 1.996-3.456l3.7-.992c1.818-.487 2.97.178 3.457 1.996l1.54 5.744c.486 1.818-.179 2.97-1.997 3.457l-3.7.992c-1.817.487-2.97-.179-3.456-1.996zm2.371-.496c.087.324.293.443.618.356l3.505-.939c.324-.087.443-.293.356-.618l-1.609-6.004c-.087-.324-.292-.443-.617-.356l-3.505.939c-.325.087-.443.293-.356.617l1.608 6.005zm6.09-10.381l.174-.516 2.061-.552 4.983 8.405.26-.07.128-9.774 2.045-.548.41.36-.298 11.611-3.7.991-6.063-9.907zm12.765 7.642l.443-11.65 3.57-.957 6.21 9.867-.175.517-1.947.522-1.29-2.09-4.382 1.174-.073 2.455-1.947.522-.41-.36zm2.497-4.896l3.116-.835-2.69-4.323-.26.07-.166 5.088zm79.016-16.475l-3-11.197 2.531-.679 6.416 6.16-1.969-7.351 2.336-.626 3.001 11.197-2.532.678-6.416-6.16 1.97 7.351-2.337.627zm11.981-3.211l-3.001-11.197 7.66-2.052.565 2.11-5.323 1.426.74 2.758 4.835-1.295.566 2.109-4.836 1.296 1.13 4.219-2.336.626zm6.1-11.374l-.565-2.11 9.152-2.452.565 2.11-3.407.913 2.435 9.087-2.337.626-2.435-9.087-3.408.913zm17.211 5.128l-3-11.197 5.452-1.461c1.818-.487 2.97.178 3.457 1.996l.582 2.174c.487 1.818-.178 2.97-1.995 3.457l-3.116.835.957 3.57-2.337.626zm.815-6.306l3.018-.808c.325-.087.443-.293.356-.618l-.652-2.434c-.087-.324-.292-.443-.617-.356l-3.018.809.913 3.407zm8.537.983l-.887-3.311c-.47-1.752.171-2.863 1.924-3.333l2.272-.609c1.752-.469 2.864.172 3.333 1.925l.887 3.31c.47 1.753-.172 2.864-1.924 3.333l-2.272.609c-1.753.47-2.864-.172-3.333-1.924zm2.282-.438c.093.346.313.473.659.38l2.012-.539c.346-.093.473-.312.38-.658l-.974-3.635c-.092-.347-.312-.473-.658-.381l-2.012.54c-.347.092-.473.312-.38.658l.973 3.635zm5.139-7.551l.152-.406 1.883-.505 3.072 6.273.114-.03-.217-7.038 2.483-.666 3.348 6.199.114-.03-.476-6.969 1.883-.504.334.275.485 8.689-3.343.895-2.861-5.547.297 6.234-3.343.896-3.925-7.766zm15.589 1.823l-.887-3.31c-.47-1.753.172-2.864 1.924-3.334l2.11-.565c1.752-.469 2.863.172 3.333 1.925l.665 2.483-5.128 1.374.266.989c.092.347.312.473.658.381l4.284-1.148.326 1.217-.778.991-3.44.922c-1.753.469-2.864-.172-3.333-1.925zm1.557-3.148l2.888-.774-.248-.925c-.093-.346-.312-.472-.658-.38l-1.85.496c-.346.093-.473.312-.38.658l.248.925zm8.657 3.229l-2-7.465c.203-.843.873-1.416 2.009-1.721l1.752-.469 1.169.469.327 1.217-2.126.57c-.325.087-.525.227-.6.421l1.708 6.378-2.239.6zm10.524-2.82l-3.218-12.008 2.24-.6.922 3.44 2.499-.67c1.752-.469 2.863.172 3.333 1.925l.887 3.31c.47 1.753-.172 2.864-1.924 3.333l-4.739 1.27zm1.718-2.547l2.369-.635c.346-.093.473-.312.38-.659l-.974-3.635c-.093-.346-.312-.473-.658-.38l-2.37.635 1.253 4.674zm4.773-8.01l.136-.402 1.931-.517 3.754 6.09.162-.044.206-7.151 1.931-.517.318.28-.512 12.433-1.931.518-.318-.28.195-3.166-1.087.292-4.785-7.536zm16.159 4.488l-3.001-11.197 2.532-.678 6.416 6.159-1.97-7.351 2.337-.626 3 11.197-2.531.679-6.416-6.16 1.969 7.351-2.336.626zm11.087-5.893l-1.539-5.744c-.487-1.818.178-2.97 1.996-3.457l3.7-.992c1.817-.487 2.969.179 3.456 1.996l1.54 5.745c.487 1.817-.179 2.97-1.996 3.457l-3.7.991c-1.817.487-2.97-.178-3.457-1.996zm2.372-.496c.087.324.293.443.617.356l3.505-.939c.325-.087.444-.293.357-.617l-1.609-6.004c-.087-.325-.293-.444-.617-.357l-3.506.939c-.324.087-.443.293-.356.618l1.609 6.004zm6.089-10.38l.175-.517 2.061-.552 4.982 8.405.26-.07.129-9.774 2.045-.548.409.36-.298 11.611-3.7.991-6.063-9.906zm12.765 7.641l.444-11.65 3.57-.957 6.209 9.868-.174.516-1.948.522-1.29-2.089-4.381 1.174-.073 2.454-1.948.522-.409-.36zm2.497-4.895l3.116-.835-2.689-4.324-.26.07-.167 5.089zm79.015-16.477l-3-11.197 2.531-.678 6.416 6.16-1.969-7.351 2.336-.626 3.001 11.197-2.532.678-6.416-6.16 1.97 7.351-2.337.626zm11.98-3.21l-3-11.197 7.66-2.052.565 2.11-5.323 1.426.739 2.758 4.836-1.295.565 2.109-4.835 1.296 1.13 4.219-2.337.626zm6.101-11.374l-.565-2.11 9.152-2.452.565 2.109-3.408.914 2.435 9.087-2.336.626-2.435-9.087-3.408.913zm17.211 5.128l-3.001-11.197 5.453-1.461c1.817-.487 2.97.178 3.457 1.996l.582 2.174c.487 1.818-.178 2.97-1.995 3.457l-3.116.835.956 3.57-2.336.626zm.815-6.306l3.018-.808c.324-.087.443-.293.356-.618l-.652-2.434c-.087-.324-.293-.443-.617-.356l-3.019.809.914 3.407zm8.536.983l-.887-3.311c-.469-1.752.172-2.863 1.925-3.333l2.272-.609c1.752-.469 2.863.172 3.333 1.925l.887 3.31c.47 1.753-.172 2.864-1.924 3.333l-2.272.609c-1.753.47-2.864-.172-3.334-1.924zm2.283-.438c.093.346.313.473.659.38l2.012-.539c.346-.093.473-.312.38-.659l-.974-3.635c-.093-.346-.312-.472-.658-.38l-2.013.54c-.346.092-.472.312-.38.658l.974 3.635zm5.139-7.551l.152-.406 1.883-.505 3.072 6.273.114-.03-.217-7.039 2.483-.665 3.348 6.199.114-.03-.476-6.969 1.882-.504.335.275.485 8.689-3.343.895-2.861-5.547.297 6.234-3.343.896-3.925-7.766zm15.589 1.823l-.887-3.31c-.47-1.753.171-2.864 1.924-3.334l2.11-.565c1.752-.469 2.863.172 3.333 1.925l.665 2.482-5.128 1.374.265.99c.093.347.313.473.659.38l4.284-1.147.326 1.217-.778.991-3.44.922c-1.753.469-2.864-.172-3.333-1.925zm1.556-3.148l2.889-.774-.248-.925c-.093-.346-.312-.472-.658-.38l-1.85.496c-.347.093-.473.312-.381.658l.248.925zm8.658 3.229l-2-7.465c.203-.843.872-1.416 2.008-1.721l1.753-.469 1.169.469.326 1.217-2.125.57c-.325.087-.525.227-.601.421l1.709 6.378-2.239.6zm10.524-2.82l-3.218-12.008 2.24-.601.922 3.441 2.499-.67c1.752-.469 2.863.172 3.333 1.925l.887 3.31c.469 1.753-.172 2.864-1.925 3.333l-4.738 1.27zm1.718-2.547l2.369-.635c.346-.093.473-.313.38-.659l-.974-3.635c-.093-.346-.312-.473-.658-.38l-2.37.635 1.253 4.674zm4.773-8.01l.136-.402 1.931-.517 3.754 6.09.162-.044.206-7.151 1.931-.517.318.28-.512 12.433-1.931.518-.319-.28.196-3.166-1.087.292-4.785-7.536zm16.158 4.488l-3-11.197 2.532-.678 6.416 6.159-1.97-7.351 2.337-.626 3 11.197-2.531.678-6.417-6.159 1.97 7.351-2.337.626zm11.088-5.893l-1.539-5.744c-.487-1.818.178-2.97 1.996-3.457l3.7-.992c1.817-.487 2.969.179 3.456 1.996l1.539 5.745c.487 1.817-.178 2.969-1.995 3.456l-3.7.992c-1.818.487-2.97-.178-3.457-1.996zm2.372-.496c.087.324.292.443.617.356l3.505-.939c.325-.087.443-.293.356-.617l-1.608-6.005c-.087-.324-.293-.443-.618-.356l-3.505.939c-.324.087-.443.293-.356.618l1.609 6.004zm6.089-10.38l.174-.517 2.061-.552 4.983 8.405.26-.07.129-9.774 2.044-.548.41.36-.298 11.611-3.7.991-6.063-9.906zm12.765 7.641l.444-11.65 3.57-.957 6.209 9.868-.175.516-1.947.522-1.29-2.089-4.382 1.174-.072 2.454-1.948.522-.409-.36zm2.497-4.895l3.116-.835-2.689-4.324-.26.07-.167 5.089zm79.016-16.477l-3.001-11.197 2.532-.679 6.416 6.16-1.97-7.351 2.337-.626 3 11.197-2.531.678-6.416-6.159 1.969 7.351-2.336.626zm11.98-3.21l-3-11.197 7.659-2.053.566 2.11-5.323 1.426.739 2.759 4.836-1.296.565 2.11-4.836 1.295 1.131 4.22-2.337.626zm6.101-11.375l-.566-2.109 9.153-2.453.565 2.11-3.408.913 2.435 9.087-2.337.626-2.435-9.087-3.407.913zm17.21 5.128l-3-11.197 5.453-1.461c1.817-.487 2.969.179 3.456 1.996l.583 2.175c.487 1.817-.178 2.969-1.996 3.456l-3.115.835.956 3.57-2.337.626zm.815-6.305l3.019-.809c.324-.087.443-.293.356-.617l-.652-2.435c-.087-.324-.293-.443-.617-.356l-3.019.809.913 3.408zm8.537.982l-.887-3.31c-.469-1.753.172-2.864 1.925-3.334l2.272-.608c1.752-.47 2.863.171 3.333 1.924l.887 3.31c.469 1.753-.172 2.864-1.925 3.334l-2.272.608c-1.752.47-2.863-.171-3.333-1.924zm2.283-.438c.093.346.312.473.659.38l2.012-.539c.346-.093.473-.312.38-.658l-.974-3.635c-.093-.346-.312-.473-.659-.38l-2.012.539c-.346.093-.473.312-.38.658l.974 3.635zm5.139-7.551l.152-.406 1.882-.504 3.073 6.273.113-.031-.216-7.038 2.483-.665 3.348 6.199.114-.031-.476-6.969 1.882-.504.335.276.484 8.688-3.343.896-2.86-5.547.296 6.234-3.342.895-3.925-7.766zm15.588 1.823l-.887-3.31c-.469-1.753.172-2.864 1.925-3.333l2.109-.565c1.753-.47 2.864.171 3.334 1.924l.665 2.483-5.128 1.374.265.99c.093.346.313.473.659.38l4.284-1.148.326 1.217-.778.991-3.44.922c-1.753.47-2.864-.172-3.334-1.925zm1.557-3.147l2.889-.774-.248-.925c-.093-.346-.312-.473-.659-.38l-1.85.495c-.346.093-.472.313-.38.659l.248.925zm8.658 3.228l-2.001-7.465c.204-.842.873-1.416 2.009-1.72l1.753-.47 1.169.469.326 1.217-2.126.57c-.324.087-.524.228-.6.422l1.709 6.377-2.239.6zm10.524-2.82l-3.218-12.008 2.239-.6.922 3.44 2.499-.67c1.753-.469 2.864.172 3.334 1.925l.887 3.31c.469 1.753-.172 2.864-1.925 3.334l-4.738 1.269zm1.717-2.547l2.37-.635c.346-.093.472-.312.38-.658l-.974-3.635c-.093-.347-.313-.473-.659-.38l-2.369.634 1.252 4.674zm4.774-8.01l.136-.402 1.931-.517 3.753 6.09.163-.043.205-7.152 1.931-.517.319.28-.512 12.434-1.931.517-.319-.28.196-3.165-1.088.291-4.784-7.536zm16.158 4.488l-3-11.197 2.531-.678 6.417 6.16-1.97-7.351 2.337-.627 3 11.197-2.532.679-6.416-6.16 1.97 7.351-2.337.626zm11.088-5.893l-1.539-5.744c-.487-1.818.178-2.97 1.995-3.457l3.7-.991c1.818-.487 2.97.178 3.457 1.996l1.539 5.744c.487 1.818-.178 2.97-1.995 3.457l-3.7.991c-1.818.487-2.97-.178-3.457-1.996zm2.371-.496c.087.325.293.443.618.356l3.505-.939c.324-.087.443-.292.356-.617l-1.609-6.004c-.086-.325-.292-.444-.617-.357l-3.505.94c-.324.087-.443.292-.356.617l1.608 6.004zm6.09-10.38l.174-.516 2.061-.553 4.983 8.405.259-.069.129-9.775 2.045-.548.41.36-.298 11.611-3.7.992-6.063-9.907zm12.765 7.641l.443-11.65 3.57-.956 6.21 9.867-.175.516-1.947.522-1.29-2.089-4.382 1.174-.073 2.454-1.947.522-.409-.36zm2.497-4.895l3.115-.835-2.689-4.323-.259.069-.167 5.089zm79.015-16.475l-3-11.197 2.531-.679 6.416 6.16-1.969-7.351 2.337-.626 3 11.197-2.532.678-6.416-6.159 1.97 7.351-2.337.626zm11.981-3.21l-3.001-11.197 7.66-2.053.565 2.11-5.323 1.426.74 2.759 4.835-1.296.566 2.11-4.836 1.295 1.13 4.219-2.336.627zm6.1-11.375l-.565-2.11 9.152-2.452.565 2.11-3.407.913 2.435 9.087-2.337.626-2.435-9.087-3.408.913zm17.211 5.128l-3-11.197 5.452-1.461c1.818-.487 2.97.179 3.457 1.996l.583 2.175c.487 1.817-.179 2.969-1.996 3.456l-3.116.835.957 3.57-2.337.626zm.815-6.305l3.018-.809c.325-.087.444-.293.357-.617l-.653-2.435c-.087-.324-.292-.443-.617-.356l-3.018.809.913 3.408zm8.537.982l-.887-3.31c-.47-1.753.172-2.864 1.924-3.334l2.272-.608c1.753-.47 2.864.171 3.333 1.924l.887 3.31c.47 1.753-.172 2.864-1.924 3.334l-2.272.608c-1.753.47-2.864-.171-3.333-1.924zm2.283-.438c.092.346.312.473.658.38l2.012-.539c.346-.093.473-.312.38-.658l-.974-3.635c-.092-.346-.312-.473-.658-.38l-2.012.539c-.346.093-.473.312-.38.658l.974 3.635zm5.138-7.551l.153-.406 1.882-.505 3.072 6.273.114-.03-.216-7.038 2.482-.666 3.348 6.2.114-.031-.476-6.969 1.883-.504.334.276.485 8.688-3.343.896-2.86-5.548.296 6.235-3.343.895-3.925-7.766zm15.589 1.823l-.887-3.31c-.47-1.753.172-2.864 1.924-3.333l2.11-.566c1.752-.469 2.864.172 3.333 1.925l.665 2.483-5.128 1.374.266.99c.092.346.312.473.658.38l4.284-1.148.326 1.217-.778.991-3.44.922c-1.752.469-2.864-.172-3.333-1.925zm1.557-3.147l2.888-.774-.248-.925c-.093-.347-.312-.473-.658-.38l-1.85.495c-.346.093-.473.312-.38.659l.248.925zm8.657 3.228l-2-7.465c.203-.842.873-1.416 2.009-1.72l1.752-.47 1.169.469.327 1.217-2.126.57c-.325.087-.525.227-.6.422l1.708 6.377-2.239.6zm10.524-2.82l-3.217-12.008 2.239-.6.922 3.44 2.499-.67c1.752-.469 2.863.172 3.333 1.925l.887 3.31c.47 1.753-.172 2.864-1.924 3.334l-4.739 1.269zm1.718-2.547l2.369-.635c.346-.093.473-.312.38-.658l-.974-3.635c-.093-.347-.312-.473-.658-.381l-2.369.635 1.252 4.674zm4.773-8.01l.136-.402 1.931-.517 3.754 6.09.162-.043.206-7.152 1.931-.517.318.28-.512 12.434-1.931.517-.318-.28.195-3.165-1.087.291-4.785-7.536zm16.159 4.488l-3.001-11.197 2.532-.678 6.416 6.16-1.97-7.351 2.337-.627 3 11.197-2.531.679-6.416-6.16 1.969 7.351-2.336.626zm11.087-5.893l-1.539-5.744c-.487-1.818.178-2.97 1.996-3.457l3.7-.991c1.817-.487 2.969.178 3.456 1.995l1.54 5.745c.487 1.817-.179 2.97-1.996 3.457l-3.7.991c-1.817.487-2.97-.178-3.457-1.996zm2.372-.496c.087.325.293.443.617.356l3.505-.939c.325-.087.444-.293.357-.617l-1.609-6.004c-.087-.325-.293-.444-.617-.357l-3.506.94c-.324.087-.443.292-.356.617l1.609 6.004zm6.089-10.38l.175-.516 2.061-.553 4.982 8.405.26-.069.129-9.775 2.045-.548.409.36-.298 11.611-3.7.992-6.063-9.907zm12.765 7.641l.444-11.65 3.57-.957 6.209 9.868-.174.516-1.948.522-1.29-2.089-4.381 1.174-.073 2.454-1.948.522-.409-.36zm2.497-4.895l3.116-.835-2.689-4.323-.26.069-.167 5.089zm79.011-16.477l-3-11.197 2.54-.678 6.41 6.159-1.97-7.351 2.34-.626 3 11.197-2.53.679-6.42-6.16 1.97 7.351-2.34.626zm11.99-3.21l-3-11.197 7.65-2.052.57 2.109-5.32 1.426.74 2.759 4.83-1.296.57 2.11-4.84 1.296 1.13 4.219-2.33.626zm6.1-11.375l-.57-2.109 9.15-2.452.57 2.109-3.41.913 2.44 9.088-2.34.626-2.44-9.088-3.4.913zm17.21 5.129l-3-11.197 5.45-1.461c1.82-.487 2.97.178 3.46 1.995l.58 2.175c.49 1.817-.18 2.97-2 3.457l-3.11.835.95 3.57-2.33.626zm.81-6.306l3.02-.809c.32-.087.44-.293.36-.617l-.66-2.434c-.08-.325-.29-.444-.61-.357l-3.02.809.91 3.408zm8.54.982l-.89-3.31c-.47-1.753.17-2.864 1.93-3.333l2.27-.609c1.75-.47 2.86.172 3.33 1.924l.89 3.311c.47 1.752-.17 2.863-1.93 3.333l-2.27.609c-1.75.469-2.86-.172-3.33-1.925zm2.28-.437c.09.346.31.472.66.38l2.01-.539c.35-.093.47-.313.38-.659l-.97-3.635c-.09-.346-.31-.473-.66-.38l-2.01.539c-.35.093-.48.312-.38.659l.97 3.635zm5.14-7.552l.15-.406 1.88-.504 3.08 6.273.11-.031-.22-7.038 2.49-.665 3.35 6.199.11-.031-.48-6.968 1.89-.505.33.276.48 8.688-3.34.896-2.86-5.547.3 6.234-3.35.896-3.92-7.767zm15.59 1.824l-.89-3.311c-.47-1.752.17-2.863 1.93-3.333l2.11-.565c1.75-.47 2.86.172 3.33 1.924l.66 2.483-5.12 1.374.26.99c.09.346.31.473.66.38l4.28-1.148.33 1.217-.78.991-3.44.922c-1.75.47-2.86-.172-3.33-1.924zm1.56-3.148l2.88-.774-.24-.925c-.1-.346-.32-.473-.66-.38l-1.85.496c-.35.092-.48.312-.38.658l.25.925zm8.65 3.228l-2-7.464c.21-.843.88-1.417 2.01-1.721l1.75-.47 1.17.47.33 1.217-2.13.569c-.32.087-.52.228-.6.422l1.71 6.377-2.24.6zm10.53-2.819l-3.22-12.009 2.24-.6.92 3.44 2.5-.669c1.75-.47 2.86.172 3.33 1.924l.89 3.311c.47 1.752-.17 2.863-1.92 3.333l-4.74 1.27zm1.71-2.548l2.37-.635c.35-.092.48-.312.38-.658l-.97-3.635c-.09-.346-.31-.473-.66-.38l-2.37.635 1.25 4.673zm4.78-8.01l.13-.401 1.93-.518 3.76 6.091.16-.044.21-7.151 1.93-.518.32.28-.52 12.434-1.93.517-.32-.279.2-3.166-1.09.291-4.78-7.536zm16.16 4.489l-3-11.197 2.53-.679 6.41 6.16-1.97-7.351 2.34-.626 3 11.197-2.53.678-6.42-6.16 1.97 7.352-2.33.626zm11.08-5.893l-1.54-5.745c-.48-1.817.18-2.97 2-3.457l3.7-.991c1.82-.487 2.97.178 3.46 1.996l1.54 5.744c.48 1.818-.18 2.97-2 3.457l-3.7.991c-1.82.487-2.97-.178-3.46-1.995zm2.38-.497c.08.325.29.444.61.357l3.51-.939c.32-.087.44-.293.35-.618l-1.6-6.004c-.09-.324-.3-.443-.62-.356l-3.51.939c-.32.087-.44.293-.35.617l1.61 6.004zm6.08-10.38l.18-.516 2.06-.552 4.98 8.405.26-.07.13-9.774 2.05-.548.41.36-.3 11.611-3.7.991-6.07-9.907zm12.77 7.642l.44-11.651 3.57-.956 6.21 9.867-.17.517-1.95.522-1.29-2.09-4.38 1.174-.07 2.455-1.95.522-.41-.36zm2.5-4.896l3.11-.835-2.69-4.323-.26.07-.16 5.088zm79.01-16.476l-3-11.197 2.53-.678 6.42 6.159-1.97-7.351 2.34-.626 3 11.197-2.54.678-6.41-6.159 1.97 7.351-2.34.626zm11.98-3.21l-3-11.197 7.66-2.052.57 2.109-5.33 1.426.74 2.759 4.84-1.296.56 2.11-4.83 1.296 1.13 4.219-2.34.626zm6.1-11.375l-.56-2.109 9.15-2.453.56 2.11-3.4.913 2.43 9.088-2.33.626-2.44-9.088-3.41.913zm17.21 5.129l-3-11.197 5.46-1.461c1.81-.487 2.97.178 3.45 1.995l.59 2.175c.48 1.817-.18 2.97-2 3.457l-3.12.834.96 3.57-2.34.627zm.82-6.306l3.02-.809c.32-.087.44-.293.35-.617l-.65-2.434c-.09-.325-.29-.444-.62-.357l-3.01.809.91 3.408zm8.54.982l-.89-3.31c-.47-1.753.17-2.864 1.92-3.333l2.27-.609c1.76-.47 2.87.172 3.34 1.924l.88 3.311c.47 1.752-.17 2.863-1.92 3.333l-2.27.609c-1.75.469-2.87-.172-3.33-1.925zm2.28-.438c.09.347.31.473.66.381l2.01-.54c.34-.092.47-.312.38-.658l-.98-3.635c-.09-.346-.31-.473-.65-.38l-2.02.539c-.34.093-.47.312-.38.658l.98 3.635zm5.14-7.551l.15-.406 1.88-.504 3.07 6.273.12-.031-.22-7.038 2.48-.665 3.35 6.199.12-.031-.48-6.968 1.88-.505.34.276.48 8.688-3.34.896-2.86-5.547.29 6.234-3.34.896-3.92-7.767zm15.59 1.824l-.89-3.311c-.47-1.752.17-2.863 1.92-3.333l2.11-.565c1.75-.47 2.87.172 3.34 1.924l.66 2.483-5.13 1.374.27.99c.09.346.31.473.66.38l4.28-1.148.33 1.217-.78.991-3.44.922c-1.75.47-2.87-.172-3.33-1.924zm1.55-3.148l2.89-.774-.25-.925c-.09-.346-.31-.473-.66-.38l-1.85.496c-.34.092-.47.312-.38.658l.25.925zm8.66 3.228l-2-7.464c.2-.843.87-1.417 2.01-1.721l1.75-.47 1.17.47.33 1.217-2.13.569c-.32.087-.52.228-.6.422l1.71 6.377-2.24.6zm10.52-2.82l-3.21-12.008 2.24-.6.92 3.44 2.5-.669c1.75-.47 2.86.172 3.33 1.924l.89 3.311c.47 1.752-.18 2.863-1.93 3.333l-4.74 1.269zm1.72-2.547l2.37-.635c.35-.092.47-.312.38-.658l-.97-3.635c-.1-.346-.32-.473-.66-.38l-2.37.635 1.25 4.673zm4.77-8.01l.14-.401 1.93-.518 3.76 6.09.16-.043.2-7.151 1.93-.518.32.28-.51 12.434-1.93.517-.32-.28.2-3.165-1.09.291-4.79-7.536zm16.16 4.489l-3-11.197 2.53-.679 6.42 6.16-1.97-7.351 2.34-.626 3 11.197-2.53.678-6.42-6.16 1.97 7.351-2.34.627zm11.09-5.893l-1.54-5.745c-.49-1.817.18-2.97 2-3.457l3.7-.991c1.81-.487 2.97.178 3.45 1.996l1.54 5.744c.49 1.818-.18 2.97-1.99 3.457l-3.7.991c-1.82.487-2.97-.178-3.46-1.995zm2.37-.497c.09.325.3.444.62.357l3.5-.939c.33-.087.45-.293.36-.618l-1.61-6.004c-.08-.325-.29-.443-.61-.356l-3.51.939c-.32.087-.44.293-.36.617l1.61 6.004zm6.09-10.38l.18-.516 2.06-.552 4.98 8.404.26-.069.13-9.775 2.04-.547.41.359-.3 11.612-3.7.991-6.06-9.907zm12.77 7.642l.44-11.651 3.57-.956 6.21 9.867-.17.517-1.95.521-1.29-2.089-4.38 1.174-.08 2.455-1.94.521-.41-.359zm2.49-4.896l3.12-.835-2.69-4.323-.26.069-.17 5.089zm79.02-16.476l-3-11.197 2.53-.678 6.42 6.16-1.97-7.351 2.33-.626 3 11.197-2.53.678-6.41-6.16 1.97 7.351-2.34.626zm11.98-3.21l-3-11.197 7.66-2.052.57 2.109-5.33 1.427.74 2.758 4.84-1.295.56 2.109-4.83 1.296 1.13 4.219-2.34.626zm6.1-11.374l-.56-2.11 9.15-2.452.56 2.109-3.4.913 2.43 9.088-2.34.626-2.43-9.087-3.41.913zm17.21 5.128l-3-11.197 5.45-1.461c1.82-.487 2.97.178 3.46 1.996l.58 2.174c.49 1.818-.17 2.97-1.99 3.457l-3.12.835.96 3.57-2.34.626zm.82-6.306l3.02-.809c.32-.087.44-.292.35-.617l-.65-2.434c-.09-.325-.29-.443-.62-.356l-3.02.808.92 3.408zm8.53.983l-.88-3.311c-.47-1.752.17-2.864 1.92-3.333l2.27-.609c1.76-.469 2.87.172 3.34 1.925l.88 3.31c.47 1.753-.17 2.864-1.92 3.333l-2.27.609c-1.76.47-2.87-.172-3.34-1.924zm2.29-.438c.09.346.31.473.65.38l2.02-.539c.34-.093.47-.312.38-.659l-.98-3.635c-.09-.346-.31-.473-.66-.38l-2.01.539c-.34.093-.47.313-.38.659l.98 3.635zm5.14-7.552l.15-.406 1.88-.504 3.07 6.273.12-.03-.22-7.039 2.48-.665 3.35 6.199.11-.03-.47-6.969 1.88-.504.34.275.48 8.688-3.34.896-2.86-5.547.29 6.234-3.34.896-3.92-7.767zm15.58 1.824l-.88-3.31c-.47-1.753.17-2.864 1.92-3.334l2.11-.565c1.75-.47 2.86.172 3.33 1.925l.67 2.482-5.13 1.374.27.99c.09.346.31.473.66.38l4.28-1.148.33 1.218-.78.991-3.44.921c-1.76.47-2.87-.171-3.34-1.924zm1.56-3.148l2.89-.774-.25-.925c-.09-.346-.31-.473-.66-.38l-1.85.496c-.34.093-.47.312-.38.658l.25.925zm8.66 3.229l-2-7.465c.2-.843.87-1.416 2.01-1.721l1.75-.469 1.17.469.32 1.217-2.12.57c-.33.087-.53.227-.6.421l1.71 6.378-2.24.6zm10.52-2.82l-3.22-12.009 2.24-.6.93 3.441 2.49-.67c1.76-.47 2.87.172 3.34 1.924l.89 3.311c.46 1.752-.18 2.864-1.93 3.333l-4.74 1.27zm1.72-2.548l2.37-.634c.35-.093.47-.313.38-.659l-.97-3.635c-.1-.346-.32-.473-.66-.38l-2.37.635 1.25 4.673zm4.77-8.009l.14-.402 1.93-.518 3.75 6.091.17-.044.2-7.151 1.93-.517.32.279-.51 12.434-1.93.518-.32-.28.19-3.166-1.08.292-4.79-7.536zm16.16 4.488l-3-11.197 2.53-.678 6.42 6.159-1.97-7.351 2.34-.626 3 11.197-2.54.678-6.41-6.159 1.97 7.351-2.34.626zm11.09-5.893l-1.54-5.745c-.49-1.817.18-2.969 2-3.456l3.7-.992c1.81-.487 2.97.179 3.45 1.996l1.54 5.745c.49 1.817-.18 2.969-1.99 3.456l-3.7.992c-1.82.487-2.97-.179-3.46-1.996zm2.37-.496c.09.324.29.443.62.356l3.5-.939c.33-.087.45-.293.36-.617l-1.61-6.005c-.09-.324-.29-.443-.62-.356l-3.5.939c-.33.087-.44.293-.36.617l1.61 6.005zm6.09-10.38l.17-.517 2.07-.552 4.98 8.405.26-.07.13-9.774 2.04-.548.41.36-.3 11.611-3.7.991-6.06-9.906zm12.76 7.641l.45-11.65 3.57-.957 6.21 9.868-.18.516-1.94.522-1.29-2.089-4.39 1.174-.07 2.454-1.95.522-.41-.36zm2.5-4.896l3.12-.834-2.69-4.324-.26.07-.17 5.088z" fill="#75FFDE"/><path fill="#BEFFD2" d="M-133.655 760.182l1854.578-496.933.31 1.16L-133.344 761.34zm12.424 46.364l1854.578-496.933.31 1.16L-120.92 807.705z"/></g><g opacity=".4"><path d="M-136.921 818.4v-11.592h2.621l4.603 7.61v-7.61h2.419V818.4h-2.62l-4.604-7.611v7.611h-2.419zm12.403 0v-11.592h7.93v2.184h-5.511v2.856h5.007v2.184h-5.007v4.368h-2.419zm8.837-9.408v-2.184h9.475v2.184h-3.528v9.408h-2.419v-9.408h-3.528zm15.297 9.408v-11.592h5.645c1.881 0 2.822.94 2.822 2.822v2.251c0 1.882-.94 2.823-2.822 2.823h-3.226v3.696h-2.419zm2.419-5.88h3.125c.336 0 .504-.168.504-.504v-2.52c0-.336-.168-.504-.504-.504h-3.125v3.528zm7.992 3.158v-3.427c0-1.815.907-2.722 2.721-2.722h2.352c1.815 0 2.722.907 2.722 2.722v3.427c0 1.814-.907 2.722-2.722 2.722h-2.352c-1.814 0-2.721-.908-2.721-2.722zm2.318.168c0 .358.18.538.538.538h2.083c.358 0 .538-.18.538-.538v-3.763c0-.359-.18-.538-.538-.538h-2.083c-.359 0-.538.179-.538.538v3.763zm6.918-5.964l.252-.353h1.95l1.343 6.855h.118l1.612-6.855h2.57l1.63 6.855h.118l1.344-6.855h1.949l.252.353-1.78 8.518h-3.462l-1.327-6.099-1.327 6.099h-3.46l-1.782-8.518zm14.586 5.796v-3.427c0-1.815.907-2.722 2.721-2.722h2.184c1.815 0 2.722.907 2.722 2.722v2.57h-5.309v1.025c0 .358.18.538.538.538h4.435v1.26l-1.008.756h-3.562c-1.814 0-2.721-.908-2.721-2.722zm2.318-2.638h2.99v-.957c0-.359-.179-.538-.537-.538h-1.915c-.359 0-.538.179-.538.538v.957zm7.527 5.36v-7.728c.414-.762 1.21-1.143 2.386-1.143h1.814l1.008.756v1.26h-2.2c-.337 0-.566.084-.69.252v6.603h-2.318zm10.895 0v-12.432h2.319v3.561h2.587c1.814 0 2.721.907 2.721 2.722v3.427c0 1.814-.907 2.722-2.721 2.722h-4.906zm2.319-2.016h2.452c.359 0 .538-.18.538-.538v-3.763c0-.359-.18-.538-.538-.538h-2.452v4.839zm6.683-6.502l.236-.353h1.999l2.05 6.855h.167l2.05-6.855h2l.234.353-3.712 11.878h-2l-.235-.353 1.008-3.007h-1.125l-2.672-8.518zm14.447 8.518v-11.592h2.62l4.604 7.61v-7.61h2.419V818.4h-2.62l-4.604-7.611v7.611h-2.42zm12.235-2.823v-5.947c0-1.882.94-2.822 2.822-2.822h3.83c1.882 0 2.823.94 2.823 2.822v5.947c0 1.882-.94 2.823-2.822 2.823h-3.83c-1.882 0-2.823-.941-2.823-2.823zm2.419.135c0 .336.168.504.504.504h3.629c.336 0 .504-.168.504-.504v-6.216c0-.336-.168-.504-.504-.504h-3.629c-.336 0-.504.168-.504.504v6.216zm8.568-8.451l.303-.453h2.133l2.638 9.408h.269l2.654-9.408h2.117l.302.453L8.383 818.4h-3.83L1.26 807.261zm10.353 10.685l3.444-11.138h3.696l3.444 11.138-.303.454h-2.016l-.706-2.352h-4.536l-.705 2.352h-2.016l-.302-.454zm3.679-4.082h3.225l-1.478-4.872h-.269l-1.478 4.872zM95.88 818.4v-11.592h2.62l4.604 7.611v-7.611h2.419V818.4h-2.621l-4.603-7.61v7.61h-2.42zm12.403 0v-11.592h7.93v2.184h-5.511v2.856h5.007v2.184h-5.007v4.368h-2.419zm8.837-9.408v-2.184h9.475v2.184h-3.528v9.408h-2.419v-9.408h-3.528zm15.297 9.408v-11.592h5.644c1.882 0 2.823.941 2.823 2.823v2.251c0 1.882-.941 2.822-2.823 2.822h-3.225v3.696h-2.419zm2.419-5.88h3.125c.336 0 .504-.168.504-.504v-2.52c0-.336-.168-.504-.504-.504h-3.125v3.528zm7.991 3.159v-3.427c0-1.815.908-2.722 2.722-2.722h2.352c1.814 0 2.722.907 2.722 2.722v3.427c0 1.814-.908 2.721-2.722 2.721h-2.352c-1.814 0-2.722-.907-2.722-2.721zm2.319.168c0 .358.179.537.537.537h2.084c.358 0 .537-.179.537-.537v-3.763c0-.359-.179-.538-.537-.538h-2.084c-.358 0-.537.179-.537.538v3.763zm6.918-5.964l.252-.353h1.949l1.344 6.854h.117l1.613-6.854h2.571l1.629 6.854h.118l1.344-6.854h1.949l.252.353-1.781 8.517h-3.461l-1.327-6.098-1.327 6.098h-3.461l-1.781-8.517zm14.585 5.796v-3.427c0-1.815.908-2.722 2.722-2.722h2.184c1.814 0 2.722.907 2.722 2.722v2.57h-5.309v1.025c0 .358.179.537.537.537h4.436v1.26l-1.008.756h-3.562c-1.814 0-2.722-.907-2.722-2.721zm2.319-2.638h2.99v-.957c0-.359-.179-.538-.537-.538h-1.916c-.358 0-.537.179-.537.538v.957zm7.527 5.359v-7.728c.414-.761 1.209-1.142 2.385-1.142h1.815l1.008.756v1.26h-2.201c-.336 0-.566.084-.689.252v6.602h-2.318zm10.895 0v-12.432h2.318v3.562h2.588c1.814 0 2.721.907 2.721 2.722v3.427c0 1.814-.907 2.721-2.721 2.721h-4.906zm2.318-2.016h2.453c.359 0 .538-.179.538-.537v-3.763c0-.359-.179-.538-.538-.538h-2.453v4.838zm6.684-6.501l.235-.353h2l2.049 6.854h.168l2.05-6.854h1.999l.235.353-3.713 11.877h-1.999l-.235-.352 1.008-3.008h-1.126l-2.671-8.517zm14.446 8.517v-11.592h2.621l4.603 7.611v-7.611h2.42V818.4h-2.621l-4.603-7.61v7.61h-2.42zm12.236-2.822v-5.947c0-1.882.94-2.823 2.822-2.823h3.83c1.882 0 2.823.941 2.823 2.823v5.947c0 1.882-.941 2.822-2.823 2.822h-3.83c-1.882 0-2.822-.94-2.822-2.822zm2.419.134c0 .336.168.504.504.504h3.629c.336 0 .504-.168.504-.504v-6.216c0-.336-.168-.504-.504-.504h-3.629c-.336 0-.504.168-.504.504v6.216zm8.568-8.45l.302-.454h2.134l2.638 9.408h.268l2.655-9.408h2.117l.302.454-3.293 11.138h-3.83l-3.293-11.138zm10.352 10.685l3.444-11.139h3.696l3.444 11.139-.302.453h-2.016l-.706-2.352h-4.536l-.705 2.352h-2.016l-.303-.453zm3.679-4.083h3.226l-1.478-4.872h-.269l-1.479 4.872zm80.587 4.536v-11.592h2.621l4.603 7.61v-7.61h2.419V818.4h-2.62l-4.604-7.61v7.61h-2.419zm12.403 0v-11.592h7.93v2.184h-5.51v2.856h5.006v2.184h-5.006v4.368h-2.42zm8.837-9.408v-2.184h9.475v2.184h-3.528v9.408h-2.419v-9.408h-3.528zm15.297 9.408v-11.592h5.645c1.881 0 2.822.941 2.822 2.822v2.252c0 1.881-.941 2.822-2.822 2.822h-3.226v3.696h-2.419zm2.419-5.88h3.125c.336 0 .504-.168.504-.504v-2.52c0-.336-.168-.504-.504-.504h-3.125v3.528zm7.992 3.158v-3.427c0-1.814.907-2.721 2.721-2.721h2.352c1.815 0 2.722.907 2.722 2.721v3.427c0 1.815-.907 2.722-2.722 2.722h-2.352c-1.814 0-2.721-.907-2.721-2.722zm2.318.168c0 .359.179.538.538.538h2.083c.358 0 .538-.179.538-.538v-3.763c0-.358-.18-.537-.538-.537h-2.083c-.359 0-.538.179-.538.537v3.763zm6.918-5.964l.252-.352h1.949l1.344 6.854h.118l1.613-6.854h2.57l1.63 6.854h.117l1.344-6.854h1.949l.252.352-1.781 8.518h-3.461l-1.327-6.098-1.327 6.098h-3.461l-1.781-8.518zm14.586 5.796v-3.427c0-1.814.907-2.721 2.721-2.721h2.184c1.815 0 2.722.907 2.722 2.721v2.571h-5.309v1.024c0 .359.179.538.538.538h4.435v1.26l-1.008.756h-3.562c-1.814 0-2.721-.907-2.721-2.722zm2.318-2.637h2.99v-.958c0-.358-.179-.537-.537-.537h-1.915c-.359 0-.538.179-.538.537v.958zm7.527 5.359v-7.728c.414-.762 1.21-1.142 2.386-1.142h1.814l1.008.756v1.26h-2.201c-.336 0-.565.084-.689.252v6.602h-2.318zm10.895 0v-12.432h2.319v3.562h2.587c1.814 0 2.722.907 2.722 2.721v3.427c0 1.815-.908 2.722-2.722 2.722h-4.906zm2.319-2.016h2.453c.358 0 .537-.179.537-.538v-3.763c0-.358-.179-.537-.537-.537h-2.453v4.838zm6.684-6.502l.235-.352h1.999l2.05 6.854h.168l2.049-6.854h1.999l.236.352-3.713 11.878h-1.999l-.236-.353 1.008-3.007h-1.125l-2.671-8.518zm14.446 8.518v-11.592h2.621l4.603 7.61v-7.61h2.419V818.4h-2.621l-4.603-7.61v7.61h-2.419zm12.235-2.822v-5.948c0-1.881.941-2.822 2.822-2.822h3.831c1.881 0 2.822.941 2.822 2.822v5.948c0 1.881-.941 2.822-2.822 2.822h-3.831c-1.881 0-2.822-.941-2.822-2.822zm2.419.134c0 .336.168.504.504.504h3.629c.336 0 .504-.168.504-.504v-6.216c0-.336-.168-.504-.504-.504h-3.629c-.336 0-.504.168-.504.504v6.216zm8.568-8.45l.303-.454h2.133l2.638 9.408h.269l2.654-9.408h2.117l.302.454-3.293 11.138h-3.83l-3.293-11.138zm10.353 10.684l3.444-11.138h3.696l3.444 11.138-.303.454h-2.016l-.705-2.352h-4.536l-.706 2.352h-2.016l-.302-.454zm3.679-4.082h3.225l-1.478-4.872h-.269l-1.478 4.872zm80.588 4.536v-11.592h2.62l4.604 7.61v-7.61h2.419V818.4h-2.621l-4.603-7.611v7.611h-2.419zm12.403 0v-11.592h7.929v2.184h-5.51v2.856h5.006v2.184h-5.006v4.368h-2.419zm8.836-9.408v-2.184h9.475v2.184h-3.528v9.408h-2.419v-9.408h-3.528zm15.297 9.408v-11.592h5.645c1.882 0 2.823.94 2.823 2.822v2.251c0 1.882-.941 2.823-2.823 2.823h-3.225v3.696h-2.42zm2.42-5.88h3.124c.336 0 .504-.168.504-.504v-2.52c0-.336-.168-.504-.504-.504h-3.124v3.528zm7.991 3.158v-3.427c0-1.815.907-2.722 2.722-2.722h2.352c1.814 0 2.721.907 2.721 2.722v3.427c0 1.814-.907 2.722-2.721 2.722h-2.352c-1.815 0-2.722-.908-2.722-2.722zm2.319.168c0 .358.179.538.537.538h2.083c.359 0 .538-.18.538-.538v-3.763c0-.359-.179-.538-.538-.538h-2.083c-.358 0-.537.179-.537.538v3.763zm6.918-5.964l.252-.353h1.949l1.344 6.855h.117l1.613-6.855h2.57l1.63 6.855h.118l1.344-6.855h1.948l.252.353-1.78 8.518h-3.461l-1.327-6.099-1.328 6.099h-3.46l-1.781-8.518zm14.585 5.796v-3.427c0-1.815.907-2.722 2.722-2.722h2.184c1.814 0 2.721.907 2.721 2.722v2.57h-5.309v1.025c0 .358.18.538.538.538h4.435v1.26l-1.008.756h-3.561c-1.815 0-2.722-.908-2.722-2.722zm2.318-2.638h2.991v-.957c0-.359-.179-.538-.538-.538h-1.915c-.358 0-.538.179-.538.538v.957zm7.527 5.36v-7.728c.415-.762 1.21-1.143 2.386-1.143h1.814l1.008.756v1.26h-2.2c-.336 0-.566.084-.689.252v6.603h-2.319zm10.896 0v-12.432h2.318v3.561h2.587c1.815 0 2.722.907 2.722 2.722v3.427c0 1.814-.907 2.722-2.722 2.722h-4.905zm2.318-2.016h2.453c.358 0 .538-.18.538-.538v-3.763c0-.359-.18-.538-.538-.538h-2.453v4.839zm6.684-6.502l.235-.353h1.999l2.05 6.855h.168l2.05-6.855h1.999l.235.353-3.713 11.878h-1.999l-.235-.353 1.008-3.007h-1.126l-2.671-8.518zm14.446 8.518v-11.592h2.621l4.603 7.61v-7.61h2.419V818.4h-2.62l-4.604-7.611v7.611h-2.419zm12.235-2.823v-5.947c0-1.882.941-2.822 2.823-2.822h3.83c1.882 0 2.823.94 2.823 2.822v5.947c0 1.882-.941 2.823-2.823 2.823h-3.83c-1.882 0-2.823-.941-2.823-2.823zm2.42.135c0 .336.168.504.504.504h3.628c.336 0 .504-.168.504-.504v-6.216c0-.336-.168-.504-.504-.504h-3.628c-.336 0-.504.168-.504.504v6.216zm8.568-8.451l.302-.453h2.134l2.637 9.408h.269l2.654-9.408h2.117l.303.453-3.293 11.139h-3.831l-3.292-11.139zm10.352 10.685l3.444-11.138h3.696l3.444 11.138-.302.454h-2.016l-.706-2.352h-4.536l-.706 2.352h-2.016l-.302-.454zm3.679-4.082h3.226l-1.479-4.872h-.268l-1.479 4.872zm80.587 4.537v-11.592h2.621l4.603 7.61v-7.61h2.42v11.592h-2.621l-4.603-7.611v7.611h-2.42zm12.403 0v-11.592h7.93v2.184h-5.51v2.856h5.006v2.184h-5.006v4.368h-2.42zm8.837-9.408v-2.184h9.475v2.184h-3.528v9.408h-2.419v-9.408h-3.528zm15.297 9.408v-11.592h5.645c1.881 0 2.822.94 2.822 2.822v2.251c0 1.882-.941 2.823-2.822 2.823h-3.226v3.696h-2.419zm2.419-5.88h3.125c.336 0 .504-.168.504-.504v-2.52c0-.336-.168-.504-.504-.504h-3.125v3.528zm7.992 3.158v-3.427c0-1.815.907-2.722 2.722-2.722h2.352c1.814 0 2.721.907 2.721 2.722v3.427c0 1.814-.907 2.722-2.721 2.722h-2.352c-1.815 0-2.722-.908-2.722-2.722zm2.318.168c0 .358.18.538.538.538h2.083c.359 0 .538-.18.538-.538v-3.763c0-.359-.179-.538-.538-.538h-2.083c-.358 0-.538.179-.538.538v3.763zm6.918-5.964l.252-.353h1.949l1.344 6.855h.118l1.613-6.855h2.57l1.63 6.855h.117l1.344-6.855h1.949l.252.353-1.781 8.518h-3.461l-1.327-6.099-1.327 6.099h-3.461l-1.781-8.518zm14.586 5.796v-3.427c0-1.815.907-2.722 2.721-2.722h2.184c1.815 0 2.722.907 2.722 2.722v2.57h-5.309v1.025c0 .358.179.538.538.538h4.435v1.26l-1.008.756h-3.562c-1.814 0-2.721-.908-2.721-2.722zm2.318-2.638h2.991v-.957c0-.359-.18-.538-.538-.538h-1.915c-.359 0-.538.179-.538.538v.957zm7.527 5.36v-7.728c.415-.762 1.21-1.143 2.386-1.143h1.814l1.008.756v1.26h-2.201c-.336 0-.565.084-.688.252v6.603h-2.319zm10.895 0v-12.432h2.319v3.561h2.587c1.814 0 2.722.907 2.722 2.722v3.427c0 1.814-.908 2.722-2.722 2.722h-4.906zm2.319-2.016h2.453c.358 0 .537-.18.537-.538v-3.763c0-.359-.179-.538-.537-.538h-2.453v4.839zm6.684-6.502l.235-.353h1.999l2.05 6.855h.168l2.049-6.855h1.999l.236.353-3.713 11.878h-1.999l-.236-.353 1.008-3.007h-1.125l-2.671-8.518zm14.446 8.518v-11.592h2.621l4.603 7.61v-7.61h2.419v11.592h-2.621l-4.603-7.611v7.611h-2.419zm12.235-2.823v-5.947c0-1.882.941-2.822 2.822-2.822h3.831c1.881 0 2.822.94 2.822 2.822v5.947c0 1.882-.941 2.823-2.822 2.823h-3.831c-1.881 0-2.822-.941-2.822-2.823zm2.419.135c0 .336.168.504.504.504h3.629c.336 0 .504-.168.504-.504v-6.216c0-.336-.168-.504-.504-.504h-3.629c-.336 0-.504.168-.504.504v6.216zm8.568-8.451l.303-.453h2.133l2.638 9.408h.269l2.654-9.408h2.117l.302.453-3.292 11.139h-3.831l-3.293-11.139zm10.353 10.685l3.444-11.138h3.696l3.444 11.138-.303.454h-2.016l-.705-2.352h-4.536l-.706 2.352h-2.016l-.302-.454zm3.679-4.082h3.226l-1.479-4.872h-.269l-1.478 4.872zm80.588 4.535v-11.592h2.62l4.6 7.61v-7.61h2.42V818.4h-2.62l-4.6-7.61v7.61h-2.42zm12.4 0v-11.592h7.93v2.184h-5.51v2.856h5.01v2.184h-5.01v4.368h-2.42zm8.84-9.408v-2.184h9.47v2.184h-3.52v9.408h-2.42v-9.408h-3.53zm15.3 9.408v-11.592h5.64c1.88 0 2.82.941 2.82 2.822v2.252c0 1.881-.94 2.822-2.82 2.822h-3.22v3.696h-2.42zm2.42-5.88h3.12c.34 0 .5-.168.5-.504v-2.52c0-.336-.16-.504-.5-.504h-3.12v3.528zm7.99 3.158v-3.427c0-1.814.9-2.721 2.72-2.721h2.35c1.82 0 2.72.907 2.72 2.721v3.427c0 1.815-.9 2.722-2.72 2.722h-2.35c-1.82 0-2.72-.907-2.72-2.722zm2.32.168c0 .359.17.538.53.538h2.09c.35 0 .53-.179.53-.538v-3.763c0-.358-.18-.537-.53-.537h-2.09c-.36 0-.53.179-.53.537v3.763zm6.91-5.964l.26-.352h1.94l1.35 6.854h.12l1.61-6.854h2.57l1.63 6.854h.12l1.34-6.854h1.95l.25.352-1.78 8.518h-3.46l-1.33-6.098-1.32 6.098h-3.47l-1.78-8.518zm14.59 5.796v-3.427c0-1.814.91-2.721 2.72-2.721h2.18c1.82 0 2.73.907 2.73 2.721v2.571h-5.31v1.024c0 .359.18.538.54.538h4.43v1.26l-1.01.756h-3.56c-1.81 0-2.72-.907-2.72-2.722zm2.32-2.637h2.99v-.958c0-.358-.18-.537-.54-.537h-1.91c-.36 0-.54.179-.54.537v.958zm7.52 5.359v-7.728c.42-.762 1.21-1.142 2.39-1.142h1.81l1.01.756v1.26h-2.2c-.33 0-.56.084-.69.252v6.602h-2.32zm10.9 0v-12.432h2.32v3.562h2.59c1.81 0 2.72.907 2.72 2.721v3.427c0 1.815-.91 2.722-2.72 2.722h-4.91zm2.32-2.016h2.45c.36 0 .54-.179.54-.538v-3.763c0-.358-.18-.537-.54-.537h-2.45v4.838zm6.68-6.502l.24-.352h2l2.05 6.854h.16l2.05-6.854h2l.24.352-3.71 11.878h-2l-.24-.353 1.01-3.007h-1.13l-2.67-8.518zm14.45 8.518v-11.592h2.62l4.6 7.61v-7.61h2.42V818.4h-2.62l-4.6-7.61v7.61h-2.42zm12.23-2.822v-5.948c0-1.881.94-2.822 2.83-2.822h3.83c1.88 0 2.82.941 2.82 2.822v5.948c0 1.881-.94 2.822-2.82 2.822h-3.83c-1.89 0-2.83-.941-2.83-2.822zm2.42.134c0 .336.17.504.51.504h3.63c.33 0 .5-.168.5-.504v-6.216c0-.336-.17-.504-.5-.504h-3.63c-.34 0-.51.168-.51.504v6.216zm8.57-8.45l.3-.454h2.14l2.63 9.408h.27l2.66-9.408h2.11l.31.454-3.3 11.138h-3.83l-3.29-11.138zm10.35 10.684l3.45-11.138h3.69l3.45 11.138-.31.454h-2.01l-.71-2.352h-4.53l-.71 2.352h-2.01l-.31-.454zm3.68-4.082h3.23l-1.48-4.872h-.27l-1.48 4.872zm80.59 4.536v-11.592h2.62l4.6 7.61v-7.61h2.42V818.4h-2.62l-4.6-7.61v7.61h-2.42zm12.4 0v-11.592h7.93v2.184h-5.51v2.856h5.01v2.184h-5.01v4.368h-2.42zm8.84-9.408v-2.184h9.47v2.184h-3.52v9.408h-2.42v-9.408h-3.53zm15.3 9.408v-11.592h5.64c1.88 0 2.82.941 2.82 2.822v2.252c0 1.881-.94 2.822-2.82 2.822h-3.23v3.696h-2.41zm2.41-5.88h3.13c.34 0 .5-.168.5-.504v-2.52c0-.336-.16-.504-.5-.504h-3.13v3.528zm8 3.158v-3.427c0-1.814.9-2.721 2.72-2.721h2.35c1.81 0 2.72.907 2.72 2.721v3.427c0 1.815-.91 2.722-2.72 2.722h-2.35c-1.82 0-2.72-.907-2.72-2.722zm2.31.168c0 .359.18.538.54.538h2.09c.35 0 .53-.179.53-.538v-3.763c0-.358-.18-.537-.53-.537h-2.09c-.36 0-.54.179-.54.537v3.763zm6.92-5.964l.26-.352h1.94l1.35 6.854h.12l1.61-6.854h2.57l1.63 6.854h.12l1.34-6.854h1.95l.25.352-1.78 8.518h-3.46l-1.33-6.098-1.33 6.098h-3.46l-1.78-8.518zm14.59 5.796v-3.427c0-1.814.91-2.721 2.72-2.721h2.18c1.82 0 2.73.907 2.73 2.721v2.571h-5.31v1.024c0 .359.18.538.53.538h4.44v1.26l-1.01.756h-3.56c-1.81 0-2.72-.907-2.72-2.722zm2.32-2.637h2.99v-.958c0-.358-.18-.537-.54-.537h-1.92c-.35 0-.53.179-.53.537v.958zm7.52 5.359v-7.728c.42-.762 1.21-1.142 2.39-1.142h1.81l1.01.756v1.26h-2.2c-.34 0-.56.084-.69.252v6.602h-2.32zm10.9 0v-12.432h2.32v3.562h2.58c1.82 0 2.73.907 2.73 2.721v3.427c0 1.815-.91 2.722-2.73 2.722h-4.9zm2.32-2.016h2.45c.36 0 .54-.179.54-.538v-3.763c0-.358-.18-.537-.54-.537h-2.45v4.838zm6.68-6.502l.24-.352h2l2.05 6.854h.16l2.05-6.854h2l.24.352-3.72 11.878h-1.99l-.24-.353 1.01-3.007h-1.13l-2.67-8.518zm14.45 8.518v-11.592h2.62l4.6 7.61v-7.61h2.42V818.4h-2.62l-4.6-7.61v7.61h-2.42zm12.23-2.822v-5.948c0-1.881.94-2.822 2.83-2.822h3.83c1.88 0 2.82.941 2.82 2.822v5.948c0 1.881-.94 2.822-2.82 2.822h-3.83c-1.89 0-2.83-.941-2.83-2.822zm2.42.134c0 .336.17.504.51.504h3.62c.34 0 .51-.168.51-.504v-6.216c0-.336-.17-.504-.51-.504H1390c-.34 0-.51.168-.51.504v6.216zm8.57-8.45l.3-.454h2.14l2.63 9.408h.27l2.66-9.408h2.11l.31.454-3.3 11.138h-3.83l-3.29-11.138zm10.35 10.684l3.45-11.138h3.69l3.45 11.138-.31.454h-2.01l-.71-2.352h-4.53l-.71 2.352h-2.02l-.3-.454zm3.68-4.082h3.23l-1.48-4.872h-.27l-1.48 4.872zm80.59 4.537v-11.592h2.62l4.6 7.61v-7.61h2.42v11.592h-2.62l-4.6-7.611v7.611h-2.42zm12.4 0v-11.592h7.93v2.184h-5.51v2.856h5.01v2.184h-5.01v4.368h-2.42zm8.84-9.408v-2.184h9.47v2.184h-3.52v9.408h-2.42v-9.408h-3.53zm15.3 9.408v-11.592h5.64c1.88 0 2.82.94 2.82 2.822v2.251c0 1.882-.94 2.823-2.82 2.823h-3.22v3.696h-2.42zm2.42-5.88h3.12c.34 0 .5-.168.5-.504v-2.52c0-.336-.16-.504-.5-.504h-3.12v3.528zm7.99 3.158v-3.427c0-1.815.9-2.722 2.72-2.722h2.35c1.82 0 2.72.907 2.72 2.722v3.427c0 1.814-.9 2.722-2.72 2.722h-2.35c-1.82 0-2.72-.908-2.72-2.722zm2.32.168c0 .358.17.538.53.538h2.09c.35 0 .53-.18.53-.538v-3.763c0-.359-.18-.538-.53-.538h-2.09c-.36 0-.53.179-.53.538v3.763zm6.91-5.964l.26-.353h1.94l1.35 6.855h.12l1.61-6.855h2.57l1.63 6.855h.12l1.34-6.855h1.95l.25.353-1.78 8.518h-3.46l-1.33-6.099-1.32 6.099h-3.47l-1.78-8.518zm14.59 5.796v-3.427c0-1.815.91-2.722 2.72-2.722h2.18c1.82 0 2.73.907 2.73 2.722v2.57h-5.31v1.025c0 .358.18.538.54.538h4.43v1.26l-1.01.756h-3.56c-1.81 0-2.72-.908-2.72-2.722zm2.32-2.638h2.99v-.957c0-.359-.18-.538-.54-.538h-1.91c-.36 0-.54.179-.54.538v.957zm7.52 5.36v-7.728c.42-.762 1.21-1.143 2.39-1.143h1.81l1.01.756v1.26h-2.2c-.33 0-.56.084-.69.252v6.603h-2.32zm10.9 0v-12.432h2.32v3.561h2.59c1.81 0 2.72.907 2.72 2.722v3.427c0 1.814-.91 2.722-2.72 2.722h-4.91zm2.32-2.016h2.45c.36 0 .54-.18.54-.538v-3.763c0-.359-.18-.538-.54-.538h-2.45v4.839zm6.68-6.502l.24-.353h2l2.05 6.855h.16l2.05-6.855h2l.24.353-3.71 11.878h-2l-.24-.353 1.01-3.007h-1.13l-2.67-8.518zm14.45 8.518v-11.592h2.62l4.6 7.61v-7.61h2.42v11.592h-2.62l-4.6-7.611v7.611h-2.42zm12.23-2.823v-5.947c0-1.882.94-2.822 2.83-2.822h3.83c1.88 0 2.82.94 2.82 2.822v5.947c0 1.882-.94 2.823-2.82 2.823h-3.83c-1.89 0-2.83-.941-2.83-2.823zm2.42.135c0 .336.17.504.51.504h3.63c.33 0 .5-.168.5-.504v-6.216c0-.336-.17-.504-.5-.504h-3.63c-.34 0-.51.168-.51.504v6.216zm8.57-8.451l.3-.453h2.14l2.63 9.408h.27l2.66-9.408h2.11l.31.453-3.3 11.139h-3.83l-3.29-11.139zm10.35 10.685l3.45-11.138h3.69l3.45 11.138-.31.454h-2.01l-.71-2.352h-4.53l-.71 2.352h-2.01l-.31-.454zm3.68-4.082h3.23l-1.48-4.872h-.27l-1.48 4.872z" fill="#75FFDE"/><path fill="#BEFFD2" d="M-160 789h1920v1.2H-160zm.001 48h1920v1.2h-1920z"/></g></g><defs><clipPath id="clip0_110_381"><path fill="#fff" d="M0 0h1600v838H0z"/></clipPath></defs></svg>