<svg width="34" height="34" fill="none" xmlns="http://www.w3.org/2000/svg"><rect width="34" height="34" rx="17" fill="#fff"/><path d="M27.54 11.42a2.77 2.77 0 00-1.945-1.957C23.88 9 17 9 17 9s-6.88 0-8.595.463A2.77 2.77 0 006.46 11.42C6 13.148 6 16.75 6 16.75s0 3.602.46 5.33a2.77 2.77 0 001.945 1.958C10.121 24.5 17 24.5 17 24.5s6.88 0 8.595-.462a2.77 2.77 0 001.945-1.958c.46-1.726.46-5.33.46-5.33s0-3.602-.46-5.33zm-12.79 8.601V13.48l5.75 3.271-5.75 3.27z" stroke="#000" stroke-width="1.5" stroke-miterlimit="10" stroke-linejoin="round"/></svg>