<svg width="34" height="34" fill="none" xmlns="http://www.w3.org/2000/svg"><rect width="34" height="34" rx="17" fill="#fff"/><path d="M10.5 21c5 2.5 8 2.5 13 0m-3 1.5l1 2s4.171-1.328 5.5-3.5c0-1 .53-8.147-3-10.5-1.5-1-4-1.5-4-1.5l-1 2h-2" stroke="#000" stroke-width="1.5" stroke-linecap="round" stroke-linejoin="round"/><path d="M13.528 22.5l-1 2s-4.171-1.328-5.5-3.5c0-1-.53-8.147 3-10.5 1.5-1 4-1.5 4-1.5l1 2h2" stroke="#000" stroke-width="1.5" stroke-linecap="round" stroke-linejoin="round"/><path d="M13.5 19c-.828 0-1.5-.895-1.5-2s.672-2 1.5-2 1.5.895 1.5 2-.672 2-1.5 2zm7 0c-.828 0-1.5-.895-1.5-2s.672-2 1.5-2 1.5.895 1.5 2-.672 2-1.5 2z" stroke="#000" stroke-width="1.5" stroke-linecap="round" stroke-linejoin="round"/></svg>