<svg width="21" height="20" fill="none" xmlns="http://www.w3.org/2000/svg"><path d="M10.153 20a9.676 9.676 0 01-3.875-.788 10.144 10.144 0 01-3.187-2.15 10.142 10.142 0 01-2.15-3.187A9.676 9.676 0 01.153 10c0-1.383.263-2.68.788-3.888a10.183 10.183 0 012.15-3.175A10.143 10.143 0 016.278.788 9.676 9.676 0 0110.153 0c1.384 0 2.68.263 3.888.787a10.182 10.182 0 013.175 2.15 10.182 10.182 0 012.15 3.175A9.649 9.649 0 0120.153 10a9.676 9.676 0 01-.787 3.875 10.141 10.141 0 01-2.15 3.188 10.182 10.182 0 01-3.175 2.15 9.648 9.648 0 01-3.888.787zm0-2.05c.434-.6.809-1.225 1.125-1.875.317-.65.575-1.342.775-2.075h-3.8c.2.733.459 1.425.775 2.075a12.7 12.7 0 001.125 1.875zm-2.6-.4c-.3-.55-.562-1.12-.787-1.713A14.688 14.688 0 016.203 14h-2.95a8.3 8.3 0 001.813 2.175 7.195 7.195 0 002.487 1.375zm5.2 0a7.194 7.194 0 002.488-1.375A8.299 8.299 0 0017.053 14h-2.95c-.15.633-.337 1.246-.562 1.838a13.857 13.857 0 01-.788 1.712zM2.403 12h3.4a13.208 13.208 0 01-.15-2 13.208 13.208 0 01.15-2h-3.4a7.96 7.96 0 00-.25 2 7.96 7.96 0 00.25 2zm5.4 0h4.7a13.208 13.208 0 00.15-2 13.208 13.208 0 00-.15-2h-4.7a13.208 13.208 0 00-.15 2 13.208 13.208 0 00.15 2zm6.7 0h3.4a7.953 7.953 0 00.25-2 7.953 7.953 0 00-.25-2h-3.4a13.208 13.208 0 01.15 2 13.208 13.208 0 01-.15 2zm-.4-6h2.95a8.298 8.298 0 00-1.812-2.175 7.195 7.195 0 00-2.488-1.375c.3.55.563 1.12.788 1.712.225.592.412 1.205.562 1.838zm-5.85 0h3.8a11.82 11.82 0 00-.775-2.075 12.684 12.684 0 00-1.125-1.875 12.7 12.7 0 00-1.125 1.875A11.9 11.9 0 008.253 6zm-5 0h2.95c.15-.633.338-1.246.563-1.838.225-.591.487-1.162.787-1.712a7.19 7.19 0 00-2.487 1.375A8.299 8.299 0 003.253 6z" fill="#fff"/></svg>