<svg width="17" height="20" fill="none" xmlns="http://www.w3.org/2000/svg"><path d="M.672 17v-2h2V8c0-1.383.417-2.612 1.25-3.688A5.769 5.769 0 017.172 2.2v-.7c0-.417.146-.77.438-1.063A1.447 1.447 0 018.672 0c.417 0 .771.146 1.063.438.292.291.438.645.438 1.062v.7a5.769 5.769 0 013.25 2.112c.833 1.075 1.25 2.305 1.25 3.688v7h2v2h-16zm8 3c-.55 0-1.02-.196-1.412-.587A1.926 1.926 0 016.672 18h4c0 .55-.195 1.02-.587 1.413A1.926 1.926 0 018.672 20zm-4-5h8V8c0-1.1-.391-2.042-1.175-2.825C10.715 4.392 9.773 4 8.672 4s-2.041.392-2.825 1.175C5.064 5.958 4.672 6.9 4.672 8v7z" fill="#fff"/></svg>